<svg width="34" height="34" viewBox="0 0 34 34" fill="none" xmlns="http://www.w3.org/2000/svg">
<path d="M16.8004 9.24164C17.4039 9.25086 18.0032 9.13996 18.5635 8.91537C19.1238 8.69079 19.6337 8.35702 20.0638 7.93349C20.4939 7.50995 20.8354 7.00512 21.0685 6.44835C21.3016 5.89159 21.4217 5.29402 21.4217 4.69042C21.4217 4.08683 21.3016 3.48926 21.0685 2.93249C20.8354 2.37573 20.4939 1.87089 20.0638 1.44736C19.6337 1.02382 19.1238 0.690051 18.5635 0.46547C18.0032 0.240889 17.4039 0.129982 16.8004 0.139203C14.2865 0.139203 12.2476 2.17708 12.2476 4.68989C12.2478 5.89719 12.7276 7.05494 13.5814 7.90853C14.4352 8.76212 15.5931 9.24164 16.8004 9.24164Z" fill="#A42BAD"/>
<path d="M22.8061 10.6266H17.4474V14.8766L18.4329 15.1178V14.1323C18.4329 13.4922 19.0162 12.911 20.0808 13.6266C21.5805 14.6375 23.195 20.3798 21.444 20.1535C20.5988 20.0457 20.1212 19.6355 19.1904 19.5835C18.4345 19.5447 18.4345 19.2196 18.4334 18.7919C18.4323 18.3643 18.4334 16.9915 18.4334 16.9915V16.2265C18.1046 16.1474 17.7762 16.0672 17.4479 15.9858V21.2415C17.4479 21.2415 18.9253 20.2369 19.982 21.0556C20.6482 21.5735 21.0652 23.0642 19.0045 24.2792C18.529 24.5687 15.9403 25.2535 15.128 23.7288H14.2116C14.0126 23.7288 13.8218 23.8078 13.6811 23.9485C13.5405 24.0892 13.4614 24.28 13.4614 24.4789C13.4614 24.6779 13.5405 24.8687 13.6811 25.0094C13.8218 25.15 14.0126 25.2291 14.2116 25.2291H19.6383C20.0508 25.2296 20.4463 25.3938 20.7379 25.6857C21.0296 25.9775 21.1935 26.3731 21.1938 26.7856C21.1935 27.1981 21.0295 27.5936 20.7379 27.8852C20.4462 28.1769 20.0507 28.3408 19.6383 28.3411H14.023C13.935 28.348 13.8528 28.3878 13.7929 28.4526C13.7329 28.5174 13.6996 28.6024 13.6996 28.6907C13.6996 28.779 13.7329 28.864 13.7929 28.9288C13.8528 28.9936 13.935 29.0334 14.023 29.0403H19.6383C20.4957 29.0403 21.1938 29.7383 21.1938 30.5968C21.1938 31.4553 20.4957 32.1523 19.6383 32.1523H13.071C12.9109 32.1523 12.7574 32.0887 12.6442 31.9756C12.5311 31.8624 12.4675 31.7089 12.4675 31.5488C12.4675 31.3888 12.5311 31.2353 12.6442 31.1221C12.7574 31.0089 12.9109 30.9453 13.071 30.9453H19.6383C19.7286 30.9418 19.814 30.9035 19.8766 30.8383C19.9392 30.7732 19.9742 30.6864 19.9742 30.596C19.9742 30.5057 19.9392 30.4188 19.8766 30.3537C19.814 30.2886 19.7286 30.2502 19.6383 30.2467H14.023C13.6106 30.246 13.2154 30.0819 12.9238 29.7903C12.6323 29.4988 12.4682 29.1035 12.4675 28.6912C12.4678 28.2786 12.6317 27.8829 12.9232 27.5909C13.2148 27.2989 13.6103 27.1344 14.023 27.1336H19.6383C19.7275 27.1287 19.8115 27.0897 19.8729 27.0248C19.9343 26.9599 19.9686 26.8739 19.9686 26.7846C19.9686 26.6952 19.9343 26.6092 19.8729 26.5443C19.8115 26.4794 19.7275 26.4405 19.6383 26.4355H14.2116C13.693 26.4347 13.196 26.2282 12.8295 25.8614C12.463 25.4946 12.257 24.9975 12.2566 24.4789C12.257 23.9604 12.463 23.4631 12.8295 23.0963C13.196 22.7294 13.693 22.5228 14.2116 22.5218H15.4228C15.4308 22.5218 15.4372 22.5261 15.4451 22.5261H15.8574C16.2579 22.5261 16.2425 22.1021 16.2415 22.1021V16.0491L15.2571 16.3221V16.991C15.2571 16.991 15.2581 18.3637 15.2571 18.7914C15.2571 19.219 15.2539 19.5442 14.5 19.5835C13.5703 19.6355 13.0928 20.0457 12.2454 20.1535C10.4949 20.3793 12.1105 14.6375 13.607 13.626C14.6711 12.9099 15.2571 13.4911 15.2571 14.1318V15.2028L16.2415 14.9308V10.625H11.1186C7.89766 10.625 5.02466 13.235 5.02466 16.4555V30.5692C5.02466 31.6705 5.89113 32.5635 6.98975 32.5635C7.25155 32.5635 7.51078 32.5119 7.75262 32.4117C7.99446 32.3114 8.21417 32.1645 8.39919 31.9792C8.58421 31.794 8.73091 31.5742 8.8309 31.3322C8.9309 31.0903 8.98222 30.831 8.98194 30.5692V17.8436H10.632V33.2504H23.0388V17.8436H24.7064V30.5692C24.7064 31.6705 25.5984 32.5635 26.6991 32.5635C27.7999 32.5635 28.6658 31.6705 28.6658 30.5692V16.4555C28.6653 13.2366 26.0266 10.6266 22.8067 10.6266H22.8061Z" fill="#A42BAD"/>
</svg>
