<svg width="21" height="27" viewBox="0 0 21 27" fill="none" xmlns="http://www.w3.org/2000/svg">
<path d="M17.0625 3.9375V6.5625C18.1068 6.5625 19.1083 6.97734 19.8467 7.71577C20.5852 8.45419 21 9.45571 21 10.5V24.9375C21 25.2856 20.8617 25.6194 20.6156 25.8656C20.3694 26.1117 20.0356 26.25 19.6875 26.25H1.3125C0.964403 26.25 0.630564 26.1117 0.384423 25.8656C0.138281 25.6194 0 25.2856 0 24.9375V10.5C0 9.45571 0.414843 8.45419 1.15327 7.71577C1.89169 6.97734 2.89321 6.5625 3.9375 6.5625V3.9375H17.0625ZM11.8125 11.8125H9.1875V14.4375H6.5625V17.0625H9.18619L9.1875 19.6875H11.8125L11.8112 17.0625H14.4375V14.4375H11.8125V11.8125ZM19.6875 0V2.625H1.3125V0H19.6875Z" fill="#A42BAD"/>
</svg>
