<svg width="32" height="32" viewBox="0 0 32 32" fill="none" xmlns="http://www.w3.org/2000/svg">
<path d="M20.0336 10.2871C20.0336 12.5656 18.1841 14.4121 15.9036 14.4121C13.6256 14.4121 11.7791 12.5651 11.7791 10.2871C11.7791 8.00911 13.6256 6.16211 15.9036 6.16211C18.1841 6.16211 20.0336 8.00911 20.0336 10.2871Z" fill="#A42BAD"/>
<path d="M15.9101 0.262695C14.0011 0.262695 11.3346 1.0237 9.40308 2.9552L11.6971 7.1347C12.1984 6.49677 12.8381 5.98117 13.568 5.62688C14.2979 5.2726 15.0988 5.08891 15.9101 5.0897C17.6396 5.0897 19.1786 5.9067 20.1591 7.1772L22.4091 2.8592C20.7376 1.0327 17.7401 0.263195 15.9101 0.263195V0.262695ZM17.6101 3.3317H16.5421V4.39869H15.2591V3.3317H14.1911V2.0492H15.2591V0.977695H16.5421V2.0492H17.6101V3.3317Z" fill="#A42BAD"/>
<path d="M10.483 21.8261H11.5395L10.0305 26.9981H21.821L20.319 21.8261H21.3765L22.888 26.9981H26.3575L23.9895 19.1621C23.6195 17.8686 21.9975 15.5911 19.1985 15.5221L12.7635 15.5166C9.90104 15.5306 8.24504 17.8526 7.87054 19.1616L5.45654 26.9976H8.97504L10.483 21.8261Z" fill="#A42BAD"/>
<path d="M0.473633 28.6465H31.3386V31.583H0.473633V28.6465Z" fill="#A42BAD"/>
</svg>
