<svg width="32" height="32" viewBox="0 0 32 32" fill="none" xmlns="http://www.w3.org/2000/svg">
<path d="M20 30H17C16.4697 29.9995 15.9613 29.7886 15.5864 29.4136C15.2114 29.0387 15.0005 28.5303 15 28V23H17V28H20V23H22V19C21.9997 18.7349 21.8943 18.4807 21.7068 18.2932C21.5193 18.1057 21.2651 18.0003 21 18H12.28L10.28 12H4C3.73486 12.0003 3.48066 12.1057 3.29319 12.2932C3.10571 12.4807 3.00026 12.7349 3 13V19H5V28H9V21H11V28C10.9995 28.5303 10.7886 29.0387 10.4136 29.4136C10.0387 29.7886 9.53027 29.9995 9 30H5C4.46973 29.9995 3.96133 29.7886 3.58637 29.4136C3.21141 29.0387 3.00053 28.5303 3 28V21C2.46973 20.9995 1.96133 20.7886 1.58637 20.4136C1.21141 20.0387 1.00053 19.5303 1 19V13C1.00079 12.2046 1.31712 11.442 1.87956 10.8796C2.44199 10.3171 3.20459 10.0008 4 10H10.28C10.6997 9.99974 11.1088 10.1316 11.4494 10.377C11.7899 10.6224 12.0444 10.9688 12.177 11.367L13.72 16H21C21.7954 16.0008 22.558 16.3171 23.1204 16.8796C23.6829 17.442 23.9992 18.2046 24 19V23C23.9995 23.5303 23.7886 24.0387 23.4136 24.4136C23.0387 24.7886 22.5303 24.9995 22 25V28C21.9995 28.5303 21.7886 29.0387 21.4136 29.4136C21.0387 29.7886 20.5303 29.9995 20 30Z" fill="#A42BAD"/>
<path d="M28 30H26V19H29V13C28.9997 12.7349 28.8943 12.4807 28.7068 12.2932C28.5193 12.1057 28.2651 12.0003 28 12H24V10H28C28.7954 10.0008 29.558 10.3171 30.1204 10.8796C30.6829 11.442 30.9992 12.2046 31 13V19C30.9995 19.5303 30.7886 20.0387 30.4136 20.4136C30.0387 20.7886 29.5303 20.9995 29 21H28V30Z" fill="#A42BAD"/>
<path d="M7 9C6.20888 9 5.43552 8.76541 4.77772 8.32588C4.11992 7.88635 3.60723 7.26164 3.30448 6.53074C3.00173 5.79983 2.92252 4.99556 3.07686 4.21964C3.2312 3.44372 3.61216 2.73098 4.17157 2.17157C4.73098 1.61216 5.44372 1.2312 6.21964 1.07686C6.99556 0.92252 7.79983 1.00173 8.53074 1.30448C9.26164 1.60723 9.88635 2.11992 10.3259 2.77772C10.7654 3.43552 11 4.20888 11 5C10.9987 6.06046 10.5768 7.07711 9.82697 7.82697C9.07711 8.57683 8.06046 8.99868 7 9ZM7 3C6.60444 3 6.21776 3.1173 5.88886 3.33706C5.55996 3.55683 5.30362 3.86918 5.15224 4.23463C5.00087 4.60009 4.96126 5.00222 5.03843 5.39018C5.1156 5.77814 5.30608 6.13451 5.58579 6.41422C5.86549 6.69392 6.22186 6.8844 6.60982 6.96157C6.99778 7.03874 7.39992 6.99914 7.76537 6.84776C8.13082 6.69639 8.44318 6.44004 8.66294 6.11114C8.8827 5.78224 9 5.39556 9 5C8.99947 4.46973 8.78859 3.96133 8.41363 3.58637C8.03867 3.21142 7.53027 3.00053 7 3Z" fill="#A42BAD"/>
<path d="M25 9C24.2089 9 23.4355 8.76541 22.7777 8.32588C22.1199 7.88635 21.6072 7.26164 21.3045 6.53074C21.0017 5.79983 20.9225 4.99556 21.0769 4.21964C21.2312 3.44372 21.6122 2.73098 22.1716 2.17157C22.731 1.61216 23.4437 1.2312 24.2196 1.07686C24.9956 0.92252 25.7998 1.00173 26.5307 1.30448C27.2616 1.60723 27.8864 2.11992 28.3259 2.77772C28.7654 3.43552 29 4.20888 29 5C28.9987 6.06046 28.5768 7.07711 27.827 7.82697C27.0771 8.57683 26.0605 8.99868 25 9ZM25 3C24.6044 3 24.2178 3.1173 23.8889 3.33706C23.56 3.55683 23.3036 3.86918 23.1522 4.23463C23.0009 4.60009 22.9613 5.00222 23.0384 5.39018C23.1156 5.77814 23.3061 6.13451 23.5858 6.41422C23.8655 6.69392 24.2219 6.8844 24.6098 6.96157C24.9978 7.03874 25.3999 6.99914 25.7654 6.84776C26.1308 6.69639 26.4432 6.44004 26.6629 6.11114C26.8827 5.78224 27 5.39556 27 5C26.9995 4.46973 26.7886 3.96133 26.4136 3.58637C26.0387 3.21142 25.5303 3.00053 25 3Z" fill="#A42BAD"/>
<path d="M18.5 15C17.8078 15 17.1311 14.7947 16.5555 14.4101C15.9799 14.0256 15.5313 13.4789 15.2664 12.8394C15.0015 12.1999 14.9322 11.4961 15.0673 10.8172C15.2023 10.1383 15.5356 9.51461 16.0251 9.02513C16.5146 8.53564 17.1383 8.2023 17.8172 8.06725C18.4961 7.9322 19.1999 8.00152 19.8394 8.26642C20.4789 8.53133 21.0256 8.97993 21.4101 9.55551C21.7947 10.1311 22 10.8078 22 11.5C21.9989 12.4279 21.6299 13.3176 20.9737 13.9737C20.3176 14.6299 19.4279 14.9989 18.5 15ZM18.5 10C18.2033 10 17.9133 10.088 17.6666 10.2528C17.42 10.4176 17.2277 10.6519 17.1142 10.926C17.0007 11.2001 16.9709 11.5017 17.0288 11.7926C17.0867 12.0836 17.2296 12.3509 17.4393 12.5607C17.6491 12.7704 17.9164 12.9133 18.2074 12.9712C18.4983 13.0291 18.7999 12.9994 19.074 12.8858C19.3481 12.7723 19.5824 12.58 19.7472 12.3334C19.912 12.0867 20 11.7967 20 11.5C19.9995 11.1023 19.8413 10.7211 19.5601 10.4399C19.2789 10.1587 18.8977 10.0005 18.5 10Z" fill="#A42BAD"/>
</svg>
