<svg width="30" height="30" viewBox="0 0 30 30" fill="none" xmlns="http://www.w3.org/2000/svg">
<path d="M12.5825 7.27542C12.6792 7.27542 12.7749 7.25638 12.8643 7.21939C12.9536 7.18239 13.0347 7.12816 13.1031 7.0598C13.1714 6.99144 13.2257 6.91029 13.2627 6.82097C13.2997 6.73166 13.3187 6.63593 13.3187 6.53925C13.3187 6.44258 13.2997 6.34685 13.2627 6.25753C13.2257 6.16822 13.1714 6.08706 13.1031 6.0187C13.0347 5.95034 12.9536 5.89611 12.8643 5.85912C12.7749 5.82212 12.6792 5.80308 12.5825 5.80308C12.4843 5.8006 12.3866 5.81781 12.2951 5.85369C12.2036 5.88957 12.1202 5.9434 12.0498 6.01201C11.9795 6.08061 11.9236 6.16261 11.8854 6.25316C11.8472 6.34371 11.8275 6.44098 11.8275 6.53925C11.8275 6.63752 11.8472 6.7348 11.8854 6.82535C11.9236 6.9159 11.9795 6.99789 12.0498 7.0665C12.1202 7.1351 12.2036 7.18893 12.2951 7.22481C12.3866 7.26069 12.4843 7.2779 12.5825 7.27542ZM13.7961 9.9398C13.2964 9.9398 13.026 9.43214 13.0236 9.42652C12.9964 9.37436 12.9592 9.32808 12.9141 9.2903C12.8691 9.25253 12.817 9.22402 12.7609 9.20639C12.7047 9.18876 12.6457 9.18235 12.5871 9.18755C12.5285 9.19275 12.4715 9.20944 12.4194 9.23667C12.3145 9.29129 12.2354 9.38508 12.1992 9.49768C12.1631 9.61028 12.1728 9.7326 12.2263 9.83808C12.246 9.87699 12.7414 10.8375 13.7961 10.8375C14.2096 10.8375 14.5532 10.7493 14.8292 10.582C15.0927 10.7634 15.4335 10.8623 15.8511 10.8623C16.8168 10.8623 17.2724 9.85777 17.2921 9.81464C17.3397 9.70639 17.3426 9.58366 17.3 9.47332C17.2574 9.36298 17.1728 9.27401 17.0647 9.22589C17.011 9.20126 16.9529 9.18756 16.8938 9.18561C16.8348 9.18365 16.7759 9.19348 16.7207 9.21451C16.6654 9.23553 16.6149 9.26735 16.5721 9.3081C16.5293 9.34884 16.495 9.3977 16.4713 9.45183C16.4703 9.45558 16.2303 9.96558 15.8507 9.96558C15.515 9.96558 15.3664 9.88027 15.3036 9.82589V9.06792C15.4541 9.03866 15.5897 8.95816 15.6875 8.84013C15.7853 8.72211 15.8391 8.57384 15.8399 8.42058C15.8399 8.04746 15.5371 7.73011 15.1808 7.73011L14.5564 7.73527C14.1791 7.73527 13.8721 8.04417 13.8721 8.42058C13.8721 8.74496 14.0999 9.01964 14.4069 9.08949V9.79542C14.3267 9.85402 14.1482 9.9398 13.7961 9.9398ZM9.42456 0.377299C11.6966 0.266674 12.1321 1.94808 12.1321 1.94808C12.1321 1.94808 13.1858 1.30355 14.8316 1.30355C16.4764 1.30355 17.5288 1.94808 17.5288 1.94808C17.5288 1.94808 17.9657 0.266674 20.2377 0.377299C21.5614 0.441049 22.6419 1.54683 22.6419 2.87246C22.6419 4.11371 21.8253 5.78011 20.4932 5.8223L20.3239 5.82746C20.3619 6.05292 20.3764 6.68199 20.3764 6.84839C20.3764 9.90699 17.8883 12.397 14.8321 12.397C11.7749 12.397 9.28628 9.90699 9.28628 6.84839C9.28628 6.68199 9.29987 6.05339 9.33972 5.82746L9.16816 5.8223C7.83737 5.78011 7.02175 4.11371 7.02175 2.87246C7.02175 1.54683 8.10128 0.441049 9.42456 0.377299ZM11.8264 19.6232V17.4262H13.7689V15.4842H15.9636V17.4262H17.908V19.6232H15.9636V21.5653H13.7694V19.6232L11.8269 19.6228L11.8264 19.6232ZM4.75909 19.3551C4.66066 16.8815 5.98019 14.8284 7.28191 13.1456L7.46097 12.9065C7.888 12.3276 8.16878 11.9451 9.46769 12.0356C10.4624 12.1064 11.4664 12.8484 11.4664 14.1328V14.1431C11.4627 14.9156 10.9578 15.6093 10.4239 16.3406C9.77472 17.2303 9.03925 18.2367 9.03925 19.6064C9.03925 19.9982 9.12503 20.3025 9.20941 20.5921C9.2905 20.8785 9.36737 21.1476 9.36737 21.494C9.36737 22.6739 8.36987 23.6343 7.14503 23.6343C5.67316 23.6348 4.87112 22.1939 4.75816 19.3551H4.75909ZM11.2321 29.6203C9.6055 29.6203 8.28222 28.2989 8.28222 26.6728C8.28222 25.0467 9.60597 23.7253 11.2321 23.7253C12.0136 23.726 12.7628 24.0368 13.3154 24.5894C13.868 25.142 14.1788 25.8913 14.1796 26.6728C14.1789 27.4543 13.8682 28.2036 13.3156 28.7563C12.7629 29.3089 12.0136 29.6196 11.2321 29.6203ZM18.4799 29.6203C16.8542 29.6203 15.53 28.2989 15.53 26.6728C15.53 25.0467 16.8538 23.7253 18.4799 23.7253C20.1064 23.7253 21.4302 25.0467 21.4302 26.6728C21.4302 28.2993 20.1064 29.6203 18.4799 29.6203ZM22.5153 23.6348C21.2905 23.6348 20.293 22.6748 20.293 21.4945C20.293 21.1481 20.3699 20.879 20.451 20.5926C20.5358 20.3025 20.6211 19.9987 20.6211 19.6068C20.6211 18.2376 19.8866 17.2307 19.2369 16.341C18.7025 15.6084 18.1986 14.9165 18.1944 14.1435V14.1332C18.1944 12.8489 19.198 12.1068 20.1932 12.036C21.4897 11.9456 21.7724 12.3285 22.1989 12.9075L22.3794 13.1465C23.6821 14.8293 24.9978 16.882 24.9022 19.3556C24.7888 22.1943 23.9853 23.6353 22.5149 23.6353L22.5153 23.6348ZM17.0896 7.27542C17.2849 7.2758 17.4723 7.19857 17.6107 7.06073C17.7491 6.92289 17.827 6.73573 17.8274 6.54042C17.8277 6.34512 17.7505 6.15766 17.6127 6.01929C17.4748 5.88093 17.2877 5.80298 17.0924 5.80261C16.9957 5.80243 16.8999 5.82129 16.8105 5.85813C16.721 5.89497 16.6398 5.94905 16.5712 6.01731C16.4329 6.15515 16.3549 6.3423 16.3546 6.53761C16.3542 6.73292 16.4314 6.92037 16.5693 7.05874C16.7071 7.19711 16.8943 7.27505 17.0896 7.27542Z" fill="#A42BAD"/>
</svg>
