<svg width="39" height="37" viewBox="0 0 39 37" fill="none" xmlns="http://www.w3.org/2000/svg">
<path d="M19.5 6.1666C10.5625 6.1666 3.25 11.6858 3.25 18.4999C3.25 21.7683 5.93125 24.4662 9.36 24.6666H9.75C11.4739 24.6666 13.1272 24.0169 14.3462 22.8604C15.5652 21.704 16.25 20.1354 16.25 18.4999C16.25 16.8644 15.5652 15.2959 14.3462 14.1394C13.1272 12.983 11.4739 12.3333 9.75 12.3333H9.36C12.0963 9.88386 15.7389 8.55471 19.5 8.63327C22.3763 8.60243 25.1875 9.35785 27.625 10.7916L29.6563 8.86452C26.6144 7.05808 23.0883 6.12141 19.5 6.1666ZM9.75 15.4166C10.612 15.4166 11.4386 15.7415 12.0481 16.3197C12.6576 16.8979 13 17.6822 13 18.4999C13 20.2112 11.505 21.5833 9.75 21.5833C8.94151 21.5871 8.16053 21.3049 7.55958 20.7918C6.95862 20.2787 6.58084 19.5715 6.5 18.8083V18.1916C6.58084 17.4284 6.95862 16.7212 7.55958 16.2081C8.16053 15.6949 8.94151 15.4128 9.75 15.4166ZM29.64 12.3333H29.25C27.5261 12.3333 25.8728 12.983 24.6538 14.1394C23.4348 15.2959 22.75 16.8644 22.75 18.4999C22.75 20.1354 23.4348 21.704 24.6538 22.8604C25.8728 24.0169 27.5261 24.6666 29.25 24.6666H29.64C26.9037 27.116 23.2611 28.4452 19.5 28.3666C16.6238 28.3974 13.8125 27.642 11.375 26.2083L9.36 28.1199C12.3988 29.9237 15.9088 30.8333 19.5 30.8333C28.4375 30.8333 35.75 25.3141 35.75 18.4999C35.75 15.2316 33.0688 12.5337 29.64 12.3333ZM29.25 21.5833C28.3881 21.5833 27.5614 21.2584 26.9519 20.6802C26.3424 20.1019 26 19.3177 26 18.4999C26 16.7887 27.495 15.4166 29.25 15.4166C30.0585 15.4128 30.8395 15.6949 31.4404 16.2081C32.0414 16.7212 32.4192 17.4284 32.5 18.1916V18.8083C32.4192 19.5715 32.0414 20.2787 31.4404 20.7918C30.8395 21.3049 30.0585 21.5871 29.25 21.5833Z" fill="#A42BAD"/>
</svg>
