<svg width="16" height="24" viewBox="0 0 16 24" fill="none" xmlns="http://www.w3.org/2000/svg">
<path d="M14.647 13.664C14.6178 13.5821 14.5831 13.5022 14.543 13.425L14.548 13.436C14.402 13.095 13.228 10.827 13.032 10.518L7.58104 0L1.99104 10.776C1.80104 11.086 0.759045 13.096 0.615045 13.436L0.558045 13.562C0.186269 14.4681 -0.00334183 15.4386 4.45717e-05 16.418C4.45717e-05 18.4289 0.79886 20.3574 2.22076 21.7793C3.64266 23.2012 5.57117 24 7.58204 24C9.59292 24 11.5214 23.2012 12.9433 21.7793C14.3652 20.3574 15.164 18.4289 15.164 16.418V16.412L15.165 16.311C15.165 15.356 14.975 14.445 14.63 13.615L14.647 13.662V13.664ZM7.58504 22.019C6.61512 22.0192 5.66187 21.7668 4.81912 21.2867C3.97638 20.8065 3.2732 20.1152 2.77882 19.2808C2.28443 18.4463 2.01589 17.4975 1.99962 16.5277C1.98336 15.5579 2.21993 14.6006 2.68604 13.75L2.67104 13.779C2.5978 14.1684 2.56097 14.5638 2.56104 14.96V14.961C2.5621 16.7366 3.26791 18.4391 4.52343 19.6946C5.77894 20.9501 7.48148 21.6559 9.25704 21.657C9.37004 21.657 9.49104 21.657 9.60304 21.651C8.96392 21.8966 8.28474 22.0214 7.60004 22.019H7.57704H7.57804H7.58504Z" fill="#A42BAD"/>
</svg>
