<svg width="25" height="25" viewBox="0 0 25 25" fill="none" xmlns="http://www.w3.org/2000/svg">
<path d="M12.0699 19.6693C11.9411 19.5406 11.7664 19.4684 11.5844 19.4684C11.4023 19.4684 11.2276 19.5406 11.0988 19.6693L7.86522 22.9005L7.46288 22.4982L11.7988 18.1681C11.9277 18.0393 12.0001 17.8647 12.0002 17.6825C12.0003 17.5003 11.928 17.3255 11.7992 17.1966C11.6704 17.0678 11.4957 16.9953 11.3135 16.9952C11.1314 16.9952 10.9566 17.0675 10.8277 17.1962L6.49296 21.5271L6.09139 21.1255L11.1344 16.0869C11.2546 15.9565 11.3199 15.7848 11.3164 15.6075C11.3129 15.4301 11.241 15.261 11.1158 15.1355C10.9905 15.01 10.8215 14.9377 10.6442 14.9339C10.4669 14.9301 10.295 14.995 10.1644 15.115L5.12069 20.1533L4.71913 19.7509L8.67694 15.7962C8.79711 15.6658 8.86219 15.494 8.85859 15.3167C8.85498 15.1394 8.78295 14.9703 8.65758 14.8449C8.5322 14.7195 8.36318 14.6474 8.18588 14.6437C8.00857 14.64 7.83671 14.705 7.70624 14.8252L2.61444 19.9072C2.60986 19.1817 2.60738 18.4561 2.60702 17.7306C2.60702 16.6205 1.20428 16.456 1.13436 16.5334C1.066 16.6138 0.366394 24.3232 0.366394 24.3232H8.39452L8.84178 23.8759L8.83593 23.8709L12.0707 20.6388C12.1995 20.5101 12.2719 20.3355 12.272 20.1534C12.2721 19.9712 12.1998 19.7966 12.0711 19.6677L12.0699 19.6693Z" fill="#A42BAD"/>
<path d="M15.682 0.766992C11.6227 0.766992 7.88242 3.8123 7.10273 7.16582C6.92812 7.91348 6.73281 9.86035 6.73281 9.86035L4.86758 14.5611C4.82124 14.6708 4.80278 14.7902 4.81386 14.9086C4.82494 15.0271 4.8652 15.1411 4.93106 15.2402C4.99692 15.3393 5.08631 15.4206 5.19125 15.4767C5.29619 15.5329 5.41341 15.5621 5.53242 15.5619H6.16914L7.30625 14.4256C7.46613 14.2655 7.66648 14.1517 7.88593 14.0966C8.10537 14.0414 8.33569 14.0468 8.5523 14.1122C8.76891 14.1777 8.96369 14.3007 9.11587 14.4681C9.26805 14.6356 9.37192 14.8412 9.41641 15.0631L9.76445 14.7154C9.9976 14.4888 10.3099 14.3619 10.635 14.3617C10.9602 14.3616 11.2726 14.4881 11.506 14.7145C11.7394 14.9409 11.8754 15.2493 11.8852 15.5743C11.8949 15.8993 11.7776 16.2153 11.5582 16.4553C11.7801 16.4998 11.9859 16.6037 12.1534 16.7559C12.321 16.9081 12.4441 17.1029 12.5097 17.3196C12.5754 17.5362 12.581 17.7666 12.526 17.9862C12.4711 18.2058 12.3576 18.4064 12.1977 18.5666L11.8344 18.9291C12.0672 18.9764 12.2891 19.0893 12.4691 19.2693C12.7039 19.5041 12.8357 19.8225 12.8357 20.1545C12.8357 20.4865 12.7039 20.8049 12.4691 21.0396L11.6625 21.8451V24.3236H21.2121V16.735C23.291 15.1002 24.6305 12.5588 24.6305 9.70762C24.6305 4.76855 20.6262 0.766602 15.682 0.766602V0.766992ZM8.93633 11.6459C8.80526 11.646 8.67545 11.6203 8.55432 11.5703C8.43318 11.5203 8.32308 11.4469 8.23032 11.3543C8.04296 11.1673 7.93756 10.9135 7.9373 10.6488C7.93704 10.3841 8.04195 10.1302 8.22893 9.94282C8.41592 9.75546 8.66968 9.65006 8.93437 9.6498C9.19907 9.64955 9.45303 9.75445 9.64039 9.94143C9.82774 10.1284 9.93314 10.3822 9.9334 10.6469C9.93366 10.9116 9.82875 11.1655 9.64177 11.3529C9.45478 11.5402 9.20103 11.6456 8.93633 11.6459ZM13.6066 13.9713C13.8559 13.9713 14.0621 14.1756 14.0621 14.424C14.0621 14.6756 13.8559 14.8783 13.6066 14.8783C13.5455 14.8809 13.4845 14.871 13.4272 14.8494C13.37 14.8277 13.3177 14.7947 13.2736 14.7524C13.2294 14.71 13.1943 14.6591 13.1703 14.6028C13.1463 14.5466 13.1339 14.486 13.1339 14.4248C13.1339 14.3636 13.1463 14.3031 13.1703 14.2468C13.1943 14.1905 13.2294 14.1396 13.2736 14.0973C13.3177 14.0549 13.37 14.0219 13.4272 14.0002C13.4845 13.9786 13.5455 13.9688 13.6066 13.9713ZM13.3355 16.8107C13.2758 16.8106 13.2167 16.7988 13.1616 16.7758C13.1065 16.7529 13.0564 16.7193 13.0143 16.677C12.9721 16.6347 12.9387 16.5845 12.916 16.5293C12.8932 16.4741 12.8815 16.415 12.8816 16.3553C12.8817 16.2956 12.8936 16.2365 12.9165 16.1813C12.9395 16.1262 12.9731 16.0761 13.0154 16.034C13.0577 15.9918 13.1078 15.9584 13.163 15.9357C13.2183 15.9129 13.2774 15.9013 13.3371 15.9014C13.4577 15.9016 13.5733 15.9497 13.6584 16.0351C13.7435 16.1205 13.7912 16.2362 13.791 16.3568C13.7908 16.4774 13.7427 16.593 13.6573 16.6781C13.5719 16.7632 13.4561 16.8109 13.3355 16.8107ZM14.3059 18.7662C14.1253 18.7511 13.9582 18.6649 13.8411 18.5266C13.7241 18.3884 13.6667 18.2093 13.6816 18.0287C13.6978 17.8488 13.7846 17.6826 13.9229 17.5665C14.0612 17.4503 14.2399 17.3936 14.4199 17.4088C14.7937 17.4408 15.0723 17.7713 15.0387 18.1443C15.0315 18.2333 15.0068 18.32 14.9661 18.3994C14.9253 18.4788 14.8693 18.5494 14.8012 18.6071C14.7332 18.6649 14.6544 18.7086 14.5694 18.7358C14.4843 18.7631 14.3948 18.7733 14.3059 18.7658V18.7662ZM14.9605 16.0424C14.7803 16.0424 14.6074 15.9708 14.4799 15.8433C14.3525 15.7158 14.2809 15.543 14.2809 15.3627C14.2809 15.1824 14.3525 15.0095 14.4799 14.8821C14.6074 14.7546 14.7803 14.683 14.9605 14.683C15.3336 14.683 15.6375 14.9869 15.6375 15.3623C15.6375 15.7377 15.3336 16.0424 14.9605 16.0424ZM15.9266 17.4678C15.6742 17.4678 15.4695 17.2654 15.4695 17.0127C15.4744 16.8952 15.5245 16.7841 15.6094 16.7026C15.6943 16.6212 15.8074 16.5757 15.925 16.5757C16.0426 16.5757 16.1557 16.6212 16.2406 16.7026C16.3255 16.7841 16.3756 16.8952 16.3805 17.0127C16.3805 17.265 16.1777 17.4678 15.9266 17.4678ZM16.9422 14.8268H16.7832V14.0154L16.9402 14.0139C17.4275 14.0122 17.8943 13.8182 18.2393 13.4741C18.5842 13.13 18.7793 12.6636 18.782 12.1764C18.7794 11.6892 18.5844 11.2229 18.2396 10.8788C17.8949 10.5347 17.4281 10.3406 16.941 10.3389L16.7832 10.3381V9.52754H16.9422C18.4051 9.52754 19.5941 10.715 19.5941 12.1764C19.5941 13.6377 18.4051 14.8271 16.9422 14.8271V14.8268Z" fill="#A42BAD"/>
</svg>
