<svg width="30" height="30" viewBox="0 0 30 30" fill="none" xmlns="http://www.w3.org/2000/svg">
<path d="M13.75 2.5C16.1782 2.50016 18.5234 3.3836 20.3482 4.98554C22.1731 6.58748 23.3528 8.79853 23.6675 11.2063L26.48 15.63C26.665 15.9212 26.6275 16.355 26.1988 16.54L23.75 17.5875V21.25C23.75 21.913 23.4866 22.5489 23.0178 23.0178C22.5489 23.4866 21.913 23.75 21.25 23.75H18.7513L18.75 27.5H7.5V22.8825C7.5 21.4075 6.955 20.0113 5.945 18.7513C4.7672 17.2807 4.02881 15.5072 3.8149 13.6353C3.601 11.7634 3.92028 9.8691 4.73597 8.17071C5.55166 6.47232 6.83056 5.03891 8.42534 4.03564C10.0201 3.03237 11.8659 2.50005 13.75 2.5ZM13.75 5C12.337 4.99994 10.9527 5.39906 9.75658 6.15137C8.56048 6.90369 7.60123 7.97859 6.98935 9.25226C6.37746 10.5259 6.13783 11.9466 6.29806 13.3505C6.45829 14.7544 7.01186 16.0845 7.895 17.1875C9.2625 18.8925 10 20.8337 10 22.8825V25H16.25L16.2525 21.25H21.25V15.94L23.1875 15.11L21.2588 12.0788L21.1875 11.5262C20.9509 9.72114 20.0658 8.06368 18.6974 6.86292C17.329 5.66215 15.5706 5.00003 13.75 5ZM13.0875 9.70375L13.75 10.3663L14.4125 9.70375C14.6143 9.49478 14.8556 9.32808 15.1225 9.21339C15.3893 9.09869 15.6763 9.03828 15.9668 9.0357C16.2573 9.03312 16.5453 9.08841 16.8142 9.19834C17.083 9.30828 17.3273 9.47066 17.5327 9.67601C17.7382 9.88136 17.9006 10.1256 18.0107 10.3944C18.1207 10.6632 18.1761 10.9512 18.1737 11.2417C18.1712 11.5321 18.1109 11.8192 17.9963 12.0861C17.8817 12.353 17.7151 12.5944 17.5063 12.7963L13.75 16.5538L9.99375 12.7963C9.78487 12.5944 9.61827 12.353 9.50368 12.0861C9.38909 11.8192 9.3288 11.5321 9.32633 11.2417C9.32387 10.9512 9.37927 10.6632 9.48932 10.3944C9.59936 10.1256 9.76184 9.88136 9.96727 9.67601C10.1727 9.47066 10.417 9.30828 10.6858 9.19834C10.9547 9.08841 11.2428 9.03312 11.5332 9.0357C11.8237 9.03828 12.1107 9.09869 12.3775 9.21339C12.6444 9.32808 12.8858 9.49478 13.0875 9.70375Z" fill="#A42BAD"/>
</svg>
