<svg width="26" height="18" viewBox="0 0 26 18" fill="none" xmlns="http://www.w3.org/2000/svg">
<path d="M17.1002 12.5996C16.8615 12.5996 16.6326 12.6944 16.4638 12.8632C16.295 13.032 16.2002 13.2609 16.2002 13.4996C16.2002 13.7383 16.295 13.9672 16.4638 14.136C16.6326 14.3048 16.8615 14.3996 17.1002 14.3996H20.7002C20.9389 14.3996 21.1678 14.3048 21.3366 14.136C21.5054 13.9672 21.6002 13.7383 21.6002 13.4996C21.6002 13.2609 21.5054 13.032 21.3366 12.8632C21.1678 12.6944 20.9389 12.5996 20.7002 12.5996H17.1002Z" fill="#9A9AB0"/>
<path d="M0 3.6C0 2.64522 0.379285 1.72955 1.05442 1.05442C1.72955 0.379284 2.64522 0 3.6 0H21.6C22.5548 0 23.4705 0.379284 24.1456 1.05442C24.8207 1.72955 25.2 2.64522 25.2 3.6V14.4C25.2 15.3548 24.8207 16.2705 24.1456 16.9456C23.4705 17.6207 22.5548 18 21.6 18H3.6C2.64522 18 1.72955 17.6207 1.05442 16.9456C0.379285 16.2705 0 15.3548 0 14.4V3.6ZM23.4 3.6C23.4 3.12261 23.2104 2.66477 22.8728 2.32721C22.5352 1.98964 22.0774 1.8 21.6 1.8H3.6C3.12261 1.8 2.66477 1.98964 2.32721 2.32721C1.98964 2.66477 1.8 3.12261 1.8 3.6V5.4H23.4V3.6ZM1.8 14.4C1.8 14.8774 1.98964 15.3352 2.32721 15.6728C2.66477 16.0104 3.12261 16.2 3.6 16.2H21.6C22.0774 16.2 22.5352 16.0104 22.8728 15.6728C23.2104 15.3352 23.4 14.8774 23.4 14.4V7.2H1.8V14.4Z" fill="#9A9AB0"/>
</svg>
