<svg width="22" height="27" viewBox="0 0 22 27" fill="none" xmlns="http://www.w3.org/2000/svg">
<path d="M18.3333 0C18.7273 0 19.1174 0.0775973 19.4814 0.228361C19.8454 0.379126 20.1761 0.600104 20.4547 0.87868C20.7332 1.15726 20.9542 1.48797 21.105 1.85195C21.2557 2.21593 21.3333 2.60603 21.3333 3V23.6733C21.3333 24.0673 21.2557 24.4574 21.105 24.8214C20.9542 25.1854 20.7332 25.5161 20.4547 25.7947C20.1761 26.0732 19.8454 26.2942 19.4814 26.445C19.1174 26.5957 18.7273 26.6733 18.3333 26.6733H3C2.60603 26.6733 2.21593 26.5957 1.85195 26.445C1.48797 26.2942 1.15726 26.0732 0.87868 25.7947C0.600104 25.5161 0.379125 25.1854 0.228361 24.8214C0.077597 24.4574 2.2665e-08 24.0673 2.2665e-08 23.6733V3C-9.33625e-05 2.23983 0.288394 1.50797 0.807159 0.952329C1.32592 0.396686 2.03628 0.0586961 2.79467 0.00666682L3 0H18.3333ZM19.3333 18.6667H2V23.6733C2 24.2253 2.448 24.6733 3 24.6733H18.3333C18.5986 24.6733 18.8529 24.568 19.0404 24.3804C19.228 24.1929 19.3333 23.9385 19.3333 23.6733V18.6667ZM5.00133 20.6667H16.3333C16.5867 20.6667 16.8306 20.763 17.0157 20.936C17.2009 21.1089 17.3134 21.3457 17.3307 21.5985C17.348 21.8513 17.2686 22.1012 17.1088 22.2977C16.9489 22.4943 16.7203 22.6228 16.4693 22.6573L16.3333 22.6667H5.00133C4.74808 22.6663 4.50442 22.5698 4.31954 22.3967C4.13466 22.2236 4.02234 21.9868 4.00524 21.7342C3.98815 21.4815 4.06756 21.2317 4.22745 21.0353C4.38733 20.8389 4.61578 20.7105 4.86667 20.676L5.00133 20.6667H16.3333H5.00133ZM18.3333 2H3L2.864 2.00933C2.62459 2.0422 2.40519 2.16064 2.24636 2.34276C2.08752 2.52488 2.00001 2.75835 2 3V16.6667H5.33333V13.66C5.33333 12.7973 5.98933 12.088 6.82933 12.0027L7 11.9933H14.3333C15.196 11.9933 15.9067 12.6493 15.9907 13.4907L16 13.66V16.6667H19.3333V3C19.3333 2.73478 19.228 2.48043 19.0404 2.29289C18.8529 2.10536 18.5986 2 18.3333 2ZM14 13.9933H7.33333V16.6667H14V13.9933ZM10.6667 3.99333C11.5507 3.99333 12.3986 4.34452 13.0237 4.96964C13.6488 5.59477 14 6.44261 14 7.32667C14 8.21072 13.6488 9.05857 13.0237 9.68369C12.3986 10.3088 11.5507 10.66 10.6667 10.66C9.78261 10.66 8.93477 10.3088 8.30964 9.68369C7.68452 9.05857 7.33333 8.21072 7.33333 7.32667C7.33333 6.44261 7.68452 5.59477 8.30964 4.96964C8.93477 4.34452 9.78261 3.99333 10.6667 3.99333ZM10.6667 5.99333C10.313 5.99333 9.97391 6.13381 9.72386 6.38386C9.47381 6.63391 9.33333 6.97304 9.33333 7.32667C9.33333 7.68029 9.47381 8.01943 9.72386 8.26948C9.97391 8.51952 10.313 8.66 10.6667 8.66C11.0203 8.66 11.3594 8.51952 11.6095 8.26948C11.8595 8.01943 12 7.68029 12 7.32667C12 6.97304 11.8595 6.63391 11.6095 6.38386C11.3594 6.13381 11.0203 5.99333 10.6667 5.99333Z" fill="#9A9AB0"/>
</svg>
