<svg width="16" height="22" viewBox="0 0 16 22" fill="none" xmlns="http://www.w3.org/2000/svg">
<g clip-path="url(#clip0_446_6973)">
<path d="M15.7088 4.37513L11.6295 0.291676C11.442 0.10417 11.1878 0 10.9212 0H10.667V5.3335H16.0005V5.07932C16.0005 4.81681 15.8963 4.56264 15.7088 4.37513ZM9.33362 5.66684V0H1.00003C0.445847 0 0 0.445847 0 1.00003V20.334C0 20.8881 0.445847 21.334 1.00003 21.334H15.0005C15.5546 21.334 16.0005 20.8881 16.0005 20.334V6.66687H10.3336C9.78363 6.66687 9.33362 6.21686 9.33362 5.66684ZM2.66675 3.00009C2.66675 2.81592 2.81592 2.66675 3.00009 2.66675H6.33353C6.5177 2.66675 6.66687 2.81592 6.66687 3.00009V3.66678C6.66687 3.85095 6.5177 4.00012 6.33353 4.00012H3.00009C2.81592 4.00012 2.66675 3.85095 2.66675 3.66678V3.00009ZM2.66675 6.33353V5.66684C2.66675 5.48267 2.81592 5.3335 3.00009 5.3335H6.33353C6.5177 5.3335 6.66687 5.48267 6.66687 5.66684V6.33353C6.66687 6.5177 6.5177 6.66687 6.33353 6.66687H3.00009C2.81592 6.66687 2.66675 6.5177 2.66675 6.33353ZM8.66693 17.3289V18.3339C8.66693 18.5181 8.51776 18.6672 8.33359 18.6672H7.6669C7.48273 18.6672 7.33356 18.5181 7.33356 18.3339V17.3218C6.86313 17.2976 6.40561 17.1334 6.02643 16.8488C5.86393 16.7268 5.85559 16.4834 6.00268 16.343L6.49228 15.8759C6.6077 15.7659 6.77937 15.7609 6.91438 15.8455C7.07563 15.9463 7.25855 16.0005 7.44856 16.0005H8.61985C8.89069 16.0005 9.11153 15.7538 9.11153 15.4509C9.11153 15.203 8.96111 14.9846 8.7461 14.9205L6.87104 14.3579C6.09644 14.1254 5.55517 13.3821 5.55517 12.55C5.55517 11.5283 6.34894 10.6982 7.33314 10.672V9.66696C7.33314 9.48279 7.48231 9.33362 7.66648 9.33362H8.33317C8.51734 9.33362 8.66651 9.48279 8.66651 9.66696V10.6791C9.13694 10.7032 9.59446 10.867 9.97364 11.152C10.1361 11.2741 10.1445 11.5174 9.99739 11.6579L9.50779 12.125C9.39237 12.235 9.2207 12.24 9.08569 12.1554C8.92444 12.0541 8.74152 12.0004 8.55151 12.0004H7.38022C7.10938 12.0004 6.88854 12.247 6.88854 12.55C6.88854 12.7979 7.03896 13.0162 7.25397 13.0804L9.12903 13.6429C9.90363 13.8754 10.4449 14.6188 10.4449 15.4509C10.4449 16.473 9.65113 17.3026 8.66693 17.3289Z" fill="#9A9AB0"/>
</g>
<defs>
<clipPath id="clip0_446_6973">
<rect width="16.0005" height="21.334" fill="white"/>
</clipPath>
</defs>
</svg>
