<svg width="231" height="174" viewBox="0 0 231 174" fill="none" xmlns="http://www.w3.org/2000/svg">
<path d="M11.8814 149.705H210.139C210.139 149.705 204.427 117.515 182.419 118.361C160.41 119.208 173.658 94.9497 172.109 78.6227C170.158 58.0529 118.257 34.6166 99.8 79.0417C88.9344 105.208 72.0194 98.5341 64.2679 96.3924C58.6936 94.854 46.7119 103.948 50.1957 116.823C56.6824 140.794 44.4828 143.268 33.0613 140.749C21.6397 138.231 11.8814 149.705 11.8814 149.705Z" fill="url(#paint0_linear_2414_24712)"/>
<path d="M132.671 105.278L140.265 109.708L141.176 107.881L134.774 104.064C134.615 103.975 134.499 103.826 134.449 103.651C134.399 103.475 134.421 103.287 134.51 103.127L139.204 94.7043L145.462 98.2221L146.473 96.3965L140.214 92.8802L144.906 84.4572C144.995 84.2981 145.143 84.181 145.318 84.1315C145.493 84.082 145.68 84.1042 145.839 84.1933L151.5 87.3746L152.944 85.0169L146.196 81.2251C146.021 81.1271 145.829 81.0645 145.63 81.041C145.432 81.0175 145.231 81.0336 145.038 81.0882C144.846 81.1429 144.666 81.2351 144.509 81.3596C144.352 81.4841 144.221 81.6385 144.124 81.8138L132.086 103.197C131.889 103.551 131.84 103.969 131.95 104.359C132.059 104.749 132.318 105.08 132.671 105.278Z" fill="#8B969F"/>
<path d="M133.865 105L140.612 108.792L141.622 106.966L135.961 103.785C135.803 103.696 135.686 103.548 135.637 103.372C135.588 103.197 135.61 103.009 135.699 102.85L140.391 94.4268L146.649 97.9445L147.667 96.119L141.409 92.6013L146.101 84.1797C146.145 84.1007 146.204 84.0313 146.274 83.9753C146.345 83.9193 146.426 83.8779 146.513 83.8534C146.599 83.8289 146.69 83.8217 146.779 83.8325C146.869 83.8432 146.955 83.8715 147.034 83.9157L152.693 87.0956L153.704 85.2715L146.974 81.4797C146.622 81.282 146.206 81.2328 145.818 81.3429C145.43 81.4531 145.101 81.7135 144.904 82.067L133.28 102.919C133.183 103.095 133.12 103.287 133.097 103.487C133.073 103.686 133.089 103.888 133.143 104.082C133.198 104.275 133.289 104.455 133.413 104.613C133.537 104.771 133.691 104.902 133.865 105Z" fill="#C0C6CB"/>
<path d="M194.682 88.2762L176.756 125.92H129.234L147.136 86.7696C147.655 84.4496 149.624 82.8213 151.892 82.8213H189.376C192.52 82.8227 195.404 85.063 194.682 88.2762Z" fill="url(#paint1_linear_2414_24712)"/>
<path opacity="0.1" d="M173.359 122.84L162.171 122.91L155.53 94.3348L160.026 88.2738L159.782 82.8218H167.353L165.779 89.4787C170.543 90.92 176.675 93.633 177.264 98.1512C178.234 105.629 173.359 122.84 173.359 122.84Z" fill="black"/>
<path d="M166.682 81.6367C166.483 82.3124 165.908 83.1099 164.616 83.9669L163.224 98.841L156.909 98.2784L157.9 90.3034L158.188 88.0051V87.9602C158.188 87.9602 154.868 89.0274 154.348 83.8668C154.219 82.5995 154.348 80.8059 154.781 78.5917C154.98 77.5622 155.243 76.4414 155.571 75.2393L165.632 74.6985L166.107 79.5197C166.107 79.5197 167.053 80.3709 166.682 81.6367Z" fill="#FCB9C0"/>
<path d="M164.707 73.3154C164.707 73.3154 161.503 69.3511 158.21 71.036C158.21 71.036 155.567 73.5793 153.237 72.3047C153.237 72.3047 153.036 73.8214 153.931 74.3347C153.931 74.3347 152.487 75.1076 151.4 74.5769C151.4 74.5769 151.921 80.8235 158.089 77.7843L157.725 79.0893C157.725 79.0893 161.453 79.9723 162.471 76.633L163.349 80.9424L164.273 80.7046C164.342 80.5063 164.455 80.3264 164.603 80.178C164.752 80.0296 164.931 79.9167 165.129 79.8476C165.835 79.5678 166.909 79.7171 166.637 81.7718C166.633 81.7616 169.965 73.5329 164.707 73.3154Z" fill="#002951"/>
<path opacity="0.1" d="M162.074 86.1794C160.614 88.3414 159.027 89.6072 157.897 90.3105L158.186 88.0122C160.187 87.4424 162.074 86.1794 162.074 86.1794Z" fill="black"/>
<path d="M152.669 102.761L150.023 113.955L136.229 111.577L144.171 108.918L145.983 103.456L146.679 101.362L151.018 102.375L152.669 102.761Z" fill="#FCB9C0"/>
<path opacity="0.1" d="M151.017 102.375L149.674 105.629L145.983 103.456L146.679 101.362L151.017 102.375Z" fill="black"/>
<path d="M150.161 104.02L145.702 102.48C145.702 102.48 148.908 91.8457 152.668 91.7065L150.161 104.02Z" fill="#01DED8"/>
<path d="M164.093 90.0278C163.814 90.3076 158.381 98.1478 158.381 98.1478L157.963 89.4724L151.625 91.92C151.625 91.92 149.325 97.5881 148.908 103.185C148.49 108.782 145.702 112.839 145.702 112.839L167.159 121.794L170.782 110.88L173.985 111.16C173.985 111.16 177.533 99.2701 173.428 95.2101C171.662 93.4541 164.093 90.0278 164.093 90.0278Z" fill="url(#paint2_linear_2414_24712)"/>
<path d="M163.954 119.691C163.954 119.691 157.434 111.193 141.397 109.844C141.397 109.844 102.233 110.316 72.14 113.954C72.14 113.954 68.6562 111.155 65.4525 113.954C62.2488 116.752 57.0282 122.909 57.0282 122.909H165.66L163.954 119.691Z" fill="url(#paint3_linear_2414_24712)"/>
<path d="M173.011 111.018L172.538 113.124L170.95 120.229C170.822 120.871 170.479 121.449 169.979 121.867C169.478 122.285 168.849 122.518 168.198 122.526L147.067 122.905H139.332L140.292 121.745C140.642 121.318 141.102 120.998 141.623 120.82L144.944 119.674C145.444 119.503 145.969 119.415 146.497 119.415H147.677C148.027 119.414 148.375 119.482 148.7 119.613L150.297 120.254L164.786 116.755L166.138 110.243L166.18 110.039L173.011 111.018Z" fill="#FCB9C0"/>
<path d="M117.49 115.008V125.219H120.233V116.653C120.233 116.413 120.328 116.182 120.497 116.013C120.666 115.843 120.895 115.748 121.134 115.748H133.764V125.219H136.507V115.748H149.14C149.379 115.748 149.608 115.843 149.777 116.013C149.946 116.182 150.041 116.413 150.041 116.653V125.219H152.784V115.008C152.784 114.744 152.733 114.483 152.632 114.239C152.532 113.995 152.384 113.773 152.198 113.587C152.013 113.4 151.792 113.252 151.549 113.151C151.306 113.05 151.046 112.998 150.783 112.999H119.491C118.961 112.999 118.452 113.21 118.076 113.587C117.701 113.964 117.49 114.475 117.49 115.008Z" fill="#8B969F"/>
<path d="M118.708 115.008V125.219H121.451V116.653C121.451 116.413 121.546 116.182 121.715 116.013C121.884 115.843 122.113 115.748 122.352 115.748H134.987V125.219H137.73V115.748H150.366C150.605 115.748 150.834 115.843 151.003 116.013C151.172 116.182 151.267 116.413 151.267 116.653V125.219H154.01V115.008C154.01 114.744 153.959 114.483 153.858 114.239C153.758 113.995 153.61 113.773 153.424 113.587C153.239 113.4 153.018 113.252 152.775 113.151C152.532 113.05 152.272 112.998 152.009 112.999H120.709C120.446 112.998 120.186 113.05 119.943 113.151C119.7 113.252 119.479 113.4 119.293 113.587C119.107 113.773 118.96 113.995 118.86 114.239C118.759 114.483 118.707 114.744 118.708 115.008Z" fill="#C0C6CB"/>
<path d="M171.673 109.73L181.336 115.368L182.491 113.048L174.344 108.187C174.243 108.132 174.155 108.057 174.083 107.966C174.012 107.876 173.959 107.773 173.928 107.662C173.897 107.551 173.888 107.435 173.902 107.32C173.916 107.206 173.952 107.096 174.009 106.995L179.986 96.2813L187.95 100.756L189.249 98.436L181.279 93.9613L187.255 83.2313C187.311 83.1304 187.385 83.0416 187.475 82.9699C187.565 82.8983 187.668 82.8453 187.778 82.814C187.889 82.7827 188.004 82.7737 188.118 82.7876C188.232 82.8015 188.342 82.838 188.442 82.8949L195.645 86.9433L197.478 83.9433L188.892 79.1191C188.444 78.8672 187.915 78.8044 187.42 78.9444C186.926 79.0844 186.507 79.4159 186.256 79.8659L170.929 107.084C170.678 107.534 170.616 108.065 170.755 108.562C170.895 109.058 171.225 109.478 171.673 109.73Z" fill="#8B969F"/>
<path d="M173.191 109.373L181.777 114.199L183.076 111.879L175.874 107.83C175.773 107.775 175.685 107.7 175.613 107.609C175.542 107.519 175.489 107.416 175.458 107.305C175.427 107.194 175.418 107.078 175.432 106.963C175.446 106.849 175.482 106.739 175.539 106.638L181.51 95.9215L189.474 100.398L190.773 98.0776L182.809 93.6015L188.781 82.8845C188.836 82.7836 188.911 82.6948 189.001 82.6231C189.091 82.5515 189.194 82.4985 189.304 82.4672C189.414 82.4359 189.53 82.4269 189.644 82.4408C189.758 82.4547 189.868 82.4912 189.967 82.5481L197.17 86.5965L198.47 84.2765L189.884 79.4524C189.435 79.2005 188.906 79.1376 188.412 79.2777C187.917 79.4177 187.499 79.7491 187.247 80.1991L172.465 106.734C172.215 107.181 172.151 107.709 172.287 108.204C172.423 108.698 172.748 109.118 173.191 109.373Z" fill="#C0C6CB"/>
<path d="M188.685 137.533H184.086V149.566H188.685V137.533Z" fill="#A7B0B7"/>
<path d="M153.715 137.533H149.116V149.566H153.715V137.533Z" fill="#A7B0B7"/>
<path d="M115.68 137.533H111.082V149.566H115.68V137.533Z" fill="#A7B0B7"/>
<path d="M80.7088 137.533H76.1104V149.566H80.7088V137.533Z" fill="#A7B0B7"/>
<path d="M194.119 128.997H64.2698V139.492H194.119V128.997Z" fill="#C0C6CB"/>
<path d="M105.786 128.299H58.9739V139.493H105.786V128.299Z" fill="#8B969F"/>
<path d="M95.0587 122.911H49.4304V129.417H95.0587V122.911Z" fill="#E1E4E6"/>
<path d="M105.09 132.356H174.799C175.636 132.356 176.459 132.14 177.189 131.729C177.918 131.318 178.531 130.725 178.967 130.007L181.492 125.85L105.09 126.2V132.356Z" fill="#8B969F"/>
<path d="M199.456 82.1444C199.159 81.9955 198.836 81.9074 198.506 81.8852C198.175 81.863 197.843 81.9072 197.529 82.0152C197.216 82.1232 196.927 82.2928 196.679 82.5141C196.432 82.7355 196.231 83.0041 196.088 83.3044L177.254 122.911H93.3864V129.419H176.214C180.185 129.419 181.161 126.48 182.668 123.465L200.595 85.4606C200.875 84.868 200.912 84.189 200.699 83.5691C200.486 82.9492 200.04 82.4377 199.456 82.1444Z" fill="#C0C6CB"/>
<path d="M188.685 132.356H179.35V136.414H188.685V132.356Z" fill="#A7B0B7"/>
<path d="M164.072 135.661H160.412C159.906 135.661 159.496 136.073 159.496 136.581C159.496 137.088 159.906 137.5 160.412 137.5H164.072C164.577 137.5 164.987 137.088 164.987 136.581C164.987 136.073 164.577 135.661 164.072 135.661Z" fill="#A7B0B7"/>
<path d="M162.24 136.122C162.483 136.122 162.716 136.219 162.887 136.392C163.059 136.564 163.156 136.798 163.156 137.042V139.475C163.156 139.782 163.277 140.077 163.494 140.295C163.71 140.512 164.004 140.635 164.311 140.635H170.025V142.333H163.817C163.491 142.333 163.169 142.268 162.868 142.143C162.568 142.018 162.295 141.835 162.064 141.603C161.834 141.372 161.652 141.098 161.528 140.796C161.403 140.494 161.339 140.17 161.339 139.843V137.042C161.339 136.8 161.433 136.568 161.602 136.396C161.771 136.224 162 136.126 162.24 136.122Z" fill="#C0C6CB"/>
<path d="M174.881 139.912H170.648C169.795 139.912 169.104 140.606 169.104 141.462V141.464C169.104 142.32 169.795 143.014 170.648 143.014H174.881C175.733 143.014 176.424 142.32 176.424 141.464V141.462C176.424 140.606 175.733 139.912 174.881 139.912Z" fill="#0994BC"/>
<path d="M141.266 122.666L141.084 122.454L142.085 121.593L145.32 120.746L145.389 121.016L142.216 121.848L141.266 122.666Z" fill="#0C2F3D"/>
<path d="M143.003 123.019L142.831 122.798L143.482 122.289L143.511 122.284L146.438 121.583L146.501 121.856L143.605 122.549L143.003 123.019Z" fill="#0C2F3D"/>
<path d="M147.537 122.156L145.657 122.786L145.745 123.052L147.625 122.422L147.537 122.156Z" fill="#0C2F3D"/>
<path d="M171.671 110.88L165.823 110.088L166.672 101.28L166.949 101.306L166.126 109.848L171.708 110.602L171.671 110.88Z" fill="#0C2F3D"/>
<path opacity="0.1" d="M173.011 111.016L172.537 113.123L166.141 110.241L166.183 110.036L173.011 111.016Z" fill="black"/>
<path d="M89.7307 77.0815L95.152 77.8631L95.279 77.4803C95.3519 77.2613 95.4996 77.0753 95.6959 76.9551C95.8922 76.8349 96.1245 76.7883 96.3517 76.8234L108.352 78.7084C108.5 78.7316 108.64 78.7885 108.762 78.8749C108.885 78.9613 108.985 79.0748 109.057 79.2066C109.128 79.3384 109.169 79.485 109.175 79.635C109.181 79.785 109.152 79.9343 109.091 80.0714L116.707 81.2314L96.9581 117.013L74.1136 112.859L89.7307 77.0815Z" fill="#163748"/>
<path d="M90.379 78.7681L94.3797 79.4162C94.3204 79.5356 94.29 79.6673 94.2909 79.8006C94.2919 79.934 94.3241 80.0652 94.385 80.1838C94.4459 80.3023 94.5337 80.4047 94.6414 80.4827C94.7491 80.5607 94.8736 80.6121 95.0048 80.6328L107.16 82.4134C107.382 82.4466 107.609 82.4056 107.806 82.2966C108.003 82.1876 108.159 82.0167 108.25 81.8102L108.449 81.3607L113.74 82.2684L96.7012 114.55L75.9199 111.953L90.379 78.7681Z" fill="#D3EBFF"/>
<path d="M92.7349 82.2683L92.6587 82.7817L107.372 84.985L107.449 84.4715L92.7349 82.2683Z" fill="#0C2F3D"/>
<path opacity="0.1" d="M102.023 105.208L82.5182 112.764L80.9864 101.291L81.8223 100.031L83.7729 110.385L102.581 100.31L102.023 105.208Z" fill="black"/>
<path d="M91.3155 86.6731L91.2393 87.1865L105.953 89.3897L106.029 88.8763L91.3155 86.6731Z" fill="#0C2F3D"/>
<path d="M88.8632 91.9875L88.787 92.501L103.501 94.7042L103.577 94.1908L88.8632 91.9875Z" fill="#0C2F3D"/>
<path d="M91.6018 90.6225C91.6018 90.6225 91.8617 92.825 91.3448 92.9555C90.828 93.086 89.0204 93.2151 89.0204 93.2151C89.0204 93.2151 87.0843 98.6598 83.2136 97.233L82.4571 99.0064L80.9946 101.776L79.854 93.2209L80.4315 91.9536L83.0837 86.0912L86.1805 82.2023C86.1805 82.2023 90.9565 81.2946 92.5056 84.7949C92.5056 84.7935 93.7963 90.3673 91.6018 90.6225Z" fill="#FFAAAD"/>
<path d="M89.2133 89.6556V88.2303L78.6306 76.9521L77.0815 78.637L86.8903 88.8842L89.2133 89.6556Z" fill="#163748"/>
<path d="M91.2798 90.4341L94.3767 93.8039L94.8935 95.6193L93.086 95.1002L89.7307 91.9899L91.2798 90.4341Z" fill="#163748"/>
<path d="M70.7581 42.9888C70.7581 50.2475 70.7581 69.6919 59.6557 65.9321V65.9756L59.1634 70.2574L58.6292 74.8757H42.361L45.5878 59.4477C45.5878 59.4477 42.6194 33.9147 60.431 37.0249C60.431 37.0249 70.7581 35.7286 70.7581 42.9888Z" fill="#FFAAAD"/>
<path d="M60.5594 58.4148C60.5594 58.4148 51.2674 63.4709 45.5877 59.4486C45.5877 59.4486 41.1987 54.7825 43.6516 40.9118C43.6516 40.9118 46.0165 29.364 64.5614 34.1708C64.5614 34.1708 72.1772 37.2825 71.9246 40.7828C71.9246 40.7828 71.0208 42.9853 67.2771 42.7272L65.2429 50.3571C65.2429 50.3571 60.3659 47.7036 61.7591 55.6786C61.8905 56.4225 61.2018 57.3534 60.5594 58.4148Z" fill="#162E31"/>
<path d="M113.222 102.62C112.705 103.915 111.156 107.156 108.705 108.323L106.867 110.381L104.187 113.379L99.1528 106.767C99.1528 106.767 101.649 105.287 101.961 104.882C101.978 104.865 101.989 104.843 101.993 104.819C101.993 104.558 101.863 100.411 103.67 97.9471C103.67 97.9471 104.446 96.5218 104.97 94.1873C104.97 94.1873 107.55 94.3178 106.002 99.8916L109.87 94.5831C109.87 94.5831 111.419 95.3603 111.16 96.6566C111.16 96.6566 112.581 97.4338 112.194 98.6011C112.194 98.6011 113.226 99.2492 112.84 100.416C113.104 100.71 113.28 101.073 113.348 101.463C113.416 101.853 113.372 102.254 113.222 102.62Z" fill="#FFAAAD"/>
<path opacity="0.1" d="M82.4571 99.0108L80.9946 101.776L79.854 93.2209L80.4315 91.9536C81.1592 93.4805 81.9373 95.7439 82.4571 99.0108Z" fill="black"/>
<path opacity="0.1" d="M106.867 110.38L104.187 113.379L99.1528 106.767C99.1528 106.767 101.649 105.286 101.961 104.882C103.278 105.712 105.683 107.534 106.867 110.38Z" fill="black"/>
<path opacity="0.1" d="M59.6499 65.9727L59.1575 70.2545C57.0355 68.3121 55.5605 65.7605 54.9331 62.9465C56.3444 64.1884 57.9346 65.2087 59.6499 65.9727Z" fill="black"/>
<path d="M68.7256 77.2225L59.809 68.5471L44.1717 65.521L39.608 72.6042L68.7256 77.2225Z" fill="#0C95BD"/>
<path d="M74.8019 129.806L80.9522 149.637H80.086H74.6243L27.8352 149.693L27.8901 125.066V125.044L27.9002 120.868C27.9002 120.868 25.5425 120.288 23.6787 119.654C23.0423 119.459 22.424 119.209 21.8307 118.906C18.4263 116.95 17.7232 111.14 18.1058 108.12L21.1146 85.3705C21.3605 83.532 22.0518 81.7821 23.1279 80.2744C24.204 78.7667 25.632 77.5471 27.2866 76.7227L41.3776 69.1914C41.3776 69.1914 52.2851 69.3857 62.8606 71.5419L72.9755 77.3129C74.6122 78.2478 76.0113 79.5504 77.0633 81.1189C78.1153 82.6873 78.7916 84.479 79.0393 86.3536L82.5187 112.762L100.443 102.746C100.443 102.746 100.892 103.435 101.464 104.35C102.3 105.684 103.403 107.5 103.774 108.368C105.089 111.502 105.606 115.707 105.606 115.707L79.4334 131.743C79.2022 131.886 78.94 131.969 78.6693 131.987C78.3987 132.005 78.1277 131.957 77.8799 131.846C77.8178 131.817 77.7601 131.787 77.7009 131.752C76.9949 131.324 76.1128 130.558 75.0473 129.738L74.6994 129.471L74.8019 129.806Z" fill="url(#paint4_linear_2414_24712)"/>
<path opacity="0.1" d="M27.894 125.056L27.9041 120.88C27.9041 120.88 25.5465 120.3 23.6826 119.666L28.3907 101.22L27.894 125.056Z" fill="black"/>
<path opacity="0.1" d="M80.9518 149.639H80.0855H74.6238L64.7934 108.204C67.7386 119.505 74.8563 129.275 74.8563 129.275L75.0468 129.739L74.6989 129.472L74.8014 129.807L80.9518 149.639Z" fill="black"/>
<path d="M100.701 118.61C100.155 111.851 96.8779 107.623 96.8447 107.581L97.1724 107.32C97.2056 107.363 100.561 111.684 101.117 118.576L100.701 118.61Z" fill="#0C2F3D"/>
<path d="M28.1827 118.979C27.4248 105.46 28.1062 85.2533 28.1134 85.0488L28.5307 85.0633C28.5235 85.2649 27.8435 105.453 28.6 118.953L28.1827 118.979Z" fill="#0C2F3D"/>
<path opacity="0.1" d="M105.606 115.708L79.4338 131.744C79.2027 131.887 78.9404 131.97 78.6698 131.988C78.3991 132.006 78.1282 131.958 77.8804 131.847C88.6464 127.216 103.557 114.582 101.464 104.351C102.3 105.685 103.403 107.501 103.774 108.369C105.089 111.503 105.606 115.708 105.606 115.708Z" fill="black"/>
<path d="M53.1009 74.9965C44.6174 74.9965 38.1566 72.7605 38.0758 72.7315L38.2201 72.3357C38.3227 72.3719 48.6151 75.9332 60.2691 74.0061L60.3369 74.4208C57.9445 74.8099 55.5245 75.0024 53.1009 74.9965Z" fill="#0C2F3D"/>
<defs>
<linearGradient id="paint0_linear_2414_24712" x1="110.988" y1="147.92" x2="109.863" y2="59.4857" gradientUnits="userSpaceOnUse">
<stop stop-color="#D3E9FE"/>
<stop offset="1" stop-color="#E9F6FF"/>
</linearGradient>
<linearGradient id="paint1_linear_2414_24712" x1="129.234" y1="104.371" x2="194.794" y2="104.371" gradientUnits="userSpaceOnUse">
<stop stop-color="#588AFD"/>
<stop offset="1" stop-color="#4D71D9"/>
</linearGradient>
<linearGradient id="paint2_linear_2414_24712" x1="162.834" y1="117.147" x2="157.263" y2="91.1802" gradientUnits="userSpaceOnUse">
<stop stop-color="#62EBE6"/>
<stop offset="1" stop-color="#8AFCED"/>
</linearGradient>
<linearGradient id="paint3_linear_2414_24712" x1="108609" y1="9880.13" x2="105260" y2="19323.9" gradientUnits="userSpaceOnUse">
<stop stop-color="#588AFD"/>
<stop offset="1" stop-color="#4D71D9"/>
</linearGradient>
<linearGradient id="paint4_linear_2414_24712" x1="61.6016" y1="79.3791" x2="62.024" y2="146.13" gradientUnits="userSpaceOnUse">
<stop stop-color="#DCE9FF"/>
<stop offset="1" stop-color="#B6D2FF"/>
</linearGradient>
</defs>
</svg>
