<svg width="76" height="62" viewBox="0 0 76 62" fill="none" xmlns="http://www.w3.org/2000/svg">
<circle cx="1.80952" cy="1.80952" r="1.80952" fill="#3DE0FF"/>
<circle cx="16.2859" cy="1.80952" r="1.80952" fill="#3DE0FF"/>
<circle cx="30.7616" cy="1.80952" r="1.80952" fill="#3DE0FF"/>
<circle cx="45.238" cy="1.80952" r="1.80952" fill="#3DE0FF"/>
<circle cx="45.238" cy="16.2861" r="1.80952" fill="#3DE0FF"/>
<circle cx="45.238" cy="30.7626" r="1.80952" fill="#3DE0FF"/>
<circle cx="45.238" cy="45.2382" r="1.80952" fill="#3DE0FF"/>
<circle cx="45.238" cy="59.7148" r="1.80952" fill="#3DE0FF"/>
<circle cx="30.7616" cy="16.2861" r="1.80952" fill="#3DE0FF"/>
<circle cx="16.2859" cy="16.2861" r="1.80952" fill="#3DE0FF"/>
<circle cx="1.80952" cy="16.2861" r="1.80952" fill="#3DE0FF"/>
<circle cx="1.80952" cy="30.7626" r="1.80952" fill="#3DE0FF"/>
<circle cx="1.80952" cy="45.2382" r="1.80952" fill="#3DE0FF"/>
<circle cx="1.80952" cy="59.7148" r="1.80952" fill="#3DE0FF"/>
<circle cx="16.2859" cy="59.7148" r="1.80952" fill="#3DE0FF"/>
<circle cx="30.7616" cy="59.7148" r="1.80952" fill="#3DE0FF"/>
<circle cx="30.7616" cy="45.2382" r="1.80952" fill="#3DE0FF"/>
<circle cx="30.7616" cy="30.7626" r="1.80952" fill="#3DE0FF"/>
<circle cx="16.2859" cy="30.7626" r="1.80952" fill="#3DE0FF"/>
<circle cx="16.2859" cy="45.2382" r="1.80952" fill="#3DE0FF"/>
<circle cx="59.7144" cy="1.80952" r="1.80952" fill="#3DE0FF"/>
<circle cx="74.1908" cy="1.80952" r="1.80952" fill="#3DE0FF"/>
<circle cx="74.1908" cy="16.2861" r="1.80952" fill="#3DE0FF"/>
<circle cx="59.7144" cy="16.2861" r="1.80952" fill="#3DE0FF"/>
<circle cx="59.7144" cy="30.7626" r="1.80952" fill="#3DE0FF"/>
<circle cx="59.7144" cy="45.2382" r="1.80952" fill="#3DE0FF"/>
<circle cx="59.7144" cy="59.7148" r="1.80952" fill="#3DE0FF"/>
<circle cx="74.1908" cy="59.7148" r="1.80952" fill="#3DE0FF"/>
<circle cx="74.1908" cy="30.7626" r="1.80952" fill="#3DE0FF"/>
<circle cx="74.1908" cy="45.2382" r="1.80952" fill="#3DE0FF"/>
</svg>
