<svg width="19" height="19" viewBox="0 0 19 19" fill="none" xmlns="http://www.w3.org/2000/svg">
<path d="M8.65755 2.68381H2.70168C2.25036 2.68381 1.81754 2.86309 1.49841 3.18222C1.17928 3.50134 1 3.93417 1 4.38549V16.2972C1 16.7485 1.17928 17.1814 1.49841 17.5005C1.81754 17.8196 2.25036 17.9989 2.70168 17.9989H14.6134C15.0647 17.9989 15.4976 17.8196 15.8167 17.5005C16.1358 17.1814 16.3151 16.7485 16.3151 16.2972V10.3414M15.0388 1.40755C15.3773 1.06907 15.8364 0.878906 16.3151 0.878906C16.7938 0.878906 17.2529 1.06907 17.5914 1.40755C17.9298 1.74603 18.12 2.20512 18.12 2.68381C18.12 3.1625 17.9298 3.62158 17.5914 3.96007L9.50839 12.043L6.10503 12.8939L6.95587 9.49052L15.0388 1.40755Z" stroke="white" stroke-width="1.6" stroke-linecap="round" stroke-linejoin="round"/>
</svg>
