<svg width="80" height="110" viewBox="0 0 80 110" fill="none" xmlns="http://www.w3.org/2000/svg">
<path d="M46.1189 77.0429C46.0437 77.0429 45.9712 77.042 45.8974 77.0393C36.3304 76.9784 27.2804 72.7674 21.0604 65.4787C15.9855 59.5316 13.1904 51.9443 13.1904 44.1144C13.1904 37.3902 15.2041 30.9226 19.0134 25.4112C22.733 20.0297 27.9015 15.9124 33.9597 13.5046C37.8314 11.9664 41.9221 11.1865 46.1186 11.1865C52.618 11.1865 58.9072 13.08 64.3061 16.6619C73.5362 22.7871 79.0468 33.0498 79.0468 44.1147C79.0468 45.3988 78.9709 46.6981 78.821 47.9769C77.9803 55.1903 74.6957 62.0268 69.5728 67.2253C63.3375 73.5558 55.0077 77.0429 46.1189 77.0429ZM46.1189 17.305C42.6994 17.305 39.369 17.9395 36.2197 19.1908C25.9475 23.2736 19.3098 33.0566 19.3098 44.1144C19.3098 50.4896 21.5848 56.6662 25.7153 61.5067C30.792 67.4551 38.1813 70.8865 45.9892 70.9208L46.1226 70.9238C53.3584 70.9232 60.1386 68.0844 65.2147 62.9306C69.3865 58.6973 72.0604 53.1344 72.7445 47.2662C72.8668 46.2211 72.929 45.1616 72.929 44.1144C72.929 35.1054 68.4411 26.7484 60.9242 21.7601C56.5306 18.8457 51.4111 17.305 46.1189 17.305Z" fill="#3DE0FF"/>
<path d="M45.0694 88.2321C20.7439 88.2321 0.953613 68.4416 0.953613 44.1161C0.953307 19.7906 20.7436 0 45.0694 0V6.11878C24.1172 6.11878 7.07208 23.1642 7.07208 44.1161C7.07208 65.068 24.1175 82.1134 45.0691 82.1134C55.2186 82.1134 64.7605 78.1609 71.9372 70.9842L76.2641 75.3111C67.9316 83.6431 56.8532 88.2321 45.0694 88.2321Z" fill="#3DE0FF"/>
<path d="M48.2609 85.1729H42.1421V106.941H48.2609V85.1729Z" fill="#3DE0FF"/>
<path d="M66.3108 103.881H24.0913V110H66.3108V103.881Z" fill="#3DE0FF"/>
<path d="M48.6218 47.1818C45.2148 47.1818 42.1423 44.4341 40.6141 42.7961C39.45 41.5485 35.6775 37.1106 36.0058 32.3817C36.0954 31.0765 36.0315 30.3833 35.9739 30.0532C35.6255 29.8925 35.143 29.6545 34.6578 29.2436C33.6216 28.369 33.1841 27.0895 32.7096 23.5419C32.4156 21.3446 32.1831 18.7138 32.0402 16.8938L31.863 14.6439L33.9603 13.8106C38.404 12.045 42.3812 11.1865 46.1189 11.1865C52.3166 11.1865 58.6058 13.1858 64.3063 16.9678L65.5542 17.7957L65.6656 19.289C66.1153 25.2983 64.5517 29.3887 61.0187 31.4461C58.2732 33.0459 57.1709 35.9663 56.0034 39.0582C55.1823 41.2334 54.333 43.4823 52.8385 45.2491C51.7855 46.4952 50.2876 47.1818 48.6218 47.1818ZM48.6218 41.063V44.1224V41.063C48.6221 41.063 48.6221 41.063 48.6218 41.063ZM39.1009 24.7742C41.5628 26.1084 42.4118 28.4201 42.1102 32.8032C42.026 34.019 43.0215 36.4069 45.0882 38.6219C46.5411 40.1791 47.7994 40.8556 48.3828 41.0211C49.0954 40.0332 49.672 38.5059 50.2793 36.8973C51.6325 33.3135 53.3164 28.8533 57.9388 26.1592C59.2706 25.3839 59.6258 23.2809 59.6239 21.2479C55.2928 18.664 50.6529 17.3053 46.1189 17.3053C43.7062 17.3053 41.1926 17.7584 38.3355 18.7187C38.6319 21.9528 38.9088 23.8362 39.1009 24.7742Z" fill="#3DE0FF"/>
<path d="M48.7473 76.7455L45.962 76.7333C36.3712 76.6911 27.2949 72.4774 21.0608 65.1725L19.4062 63.2338L21.0143 61.2565C26.1513 54.9388 30.6939 51.7354 34.5153 51.7354C36.3947 51.7354 38.0587 52.4901 39.3284 53.9182C41.8567 56.7625 43.4341 59.5912 44.5856 61.6566C45.0234 62.4414 45.5481 63.3824 45.8957 63.8615C46.6727 64.0053 47.3798 64.4006 47.932 65.01C49.2439 66.4574 49.5287 68.8031 49.0202 73.9737L48.7473 76.7455ZM27.4962 63.0946C31.7598 67.211 37.2547 69.7943 43.1318 70.4499C43.1431 70.0394 43.1413 69.7117 43.1327 69.4517C41.4449 68.5886 40.3661 66.6542 39.2412 64.6368C38.1707 62.717 36.8383 60.3276 34.7552 57.9838C34.6399 57.8544 34.6184 57.8544 34.515 57.8544C33.3448 57.8541 30.7523 59.5089 27.4962 63.0946Z" fill="#3DE0FF"/>
<path d="M68.1003 68.4087L66.4718 68.0737C59.7879 66.6991 55.2974 61.8754 55.2974 56.0702C55.2974 49.238 62.1596 43.6797 70.5943 43.6797C72.671 43.6797 74.4403 43.9969 76.5115 44.741L78.7975 45.5621L78.516 47.9748C77.675 55.1897 74.3904 62.0262 69.2678 67.2247L68.1003 68.4087ZM70.594 49.7985C65.6188 49.7985 61.4158 52.6706 61.4158 56.0702C61.4158 58.4706 63.2453 60.5773 66.108 61.6288C69.0117 58.2607 71.0447 54.2003 71.9977 49.8817C71.5482 49.8245 71.0902 49.7985 70.594 49.7985Z" fill="#3DE0FF"/>
</svg>
