<svg width="32" height="32" viewBox="0 0 32 32" fill="none" xmlns="http://www.w3.org/2000/svg">
<path d="M30.7139 8.67869C29.9009 7.01562 28.7058 5.60675 27.1619 4.49125C24.4252 2.51394 20.5654 1.46875 16 1.46875C11.4346 1.46875 7.57481 2.51388 4.83806 4.49125C3.29419 5.60675 2.09912 7.01562 1.28612 8.67869C0.43275 10.4244 0 12.4566 0 14.7188C0 19.6115 2.01781 23.3545 5.85094 25.6059C5.32069 27.4766 4.63269 28.6103 4.6265 28.6204L3.44006 30.5279L5.68725 30.5312H5.69375C5.70019 30.5312 5.70675 30.5312 5.71369 30.5312C6.42287 30.5312 9.67656 30.3783 12.3221 27.7244C13.4884 27.8867 14.7224 27.9688 16 27.9688C20.5654 27.9688 24.4252 26.9236 27.1619 24.9463C28.7058 23.8307 29.9009 22.4219 30.7139 20.7588C31.5672 19.0131 32 16.9809 32 14.7188C32 12.4566 31.5672 10.4244 30.7139 8.67869ZM25.6978 22.9198C23.3898 24.5873 20.0364 25.4688 16 25.4688C14.6131 25.4688 13.2897 25.3634 12.0666 25.1557L11.3706 25.0375L10.91 25.5725C9.92037 26.7219 8.77787 27.3356 7.808 27.6624C8.05988 26.9829 8.31494 26.1675 8.52075 25.2383L8.73294 24.2808L7.85337 23.8469C4.30113 22.0947 2.5 19.0236 2.5 14.7188C2.5 11.0998 3.77925 8.34056 6.30225 6.51769C8.61012 4.85019 11.9636 3.96875 16 3.96875C20.0364 3.96875 23.3899 4.85012 25.6978 6.51769C28.2208 8.34056 29.5 11.0999 29.5 14.7188C29.5 18.3376 28.2208 21.0969 25.6978 22.9198Z" fill="#170041"/>
<g clip-path="url(#clip0_52:4719)">
<path d="M15.9844 6.75C14.7844 6.75 13.8117 7.72275 13.8117 8.9227V12.2492H10.4852C9.28525 12.2492 8.3125 13.2219 8.3125 14.4219C8.3125 15.6218 9.28525 16.5946 10.4852 16.5946H13.8117V19.9211C13.8117 21.121 14.7844 22.0938 15.9844 22.0938C17.1843 22.0938 18.1571 21.121 18.1571 19.9211V16.5946H21.4836C22.6835 16.5946 23.6563 15.6218 23.6563 14.4219C23.6563 13.2219 22.6835 12.2492 21.4836 12.2492H18.1571V8.9227C18.1571 7.72275 17.1843 6.75 15.9844 6.75Z" fill="#170041"/>
</g>
<defs>
<clipPath id="clip0_52:4719">
<rect width="15.3438" height="15.3438" fill="white" transform="translate(8.3125 6.75)"/>
</clipPath>
</defs>
</svg>
