<svg width="112" height="104" viewBox="0 0 112 104" fill="none" xmlns="http://www.w3.org/2000/svg">
<path d="M62.8334 58.4909C62.3182 57.7159 61.2726 57.505 60.4974 58.0201C59.8789 58.4314 58.2079 58.8737 56.0001 58.8737C53.7924 58.8737 52.1211 58.4311 51.5024 58.0199C50.7272 57.5052 49.6812 57.7157 49.1666 58.4907C48.6514 59.2658 48.8624 60.3117 49.6373 60.8269C50.9724 61.7142 53.3511 62.2438 56.0001 62.2438C58.6491 62.2438 61.0277 61.7142 62.3627 60.8271C63.1377 60.3117 63.3486 59.2658 62.8334 58.4909Z" fill="#3DE0FF" stroke="#3DE0FF" stroke-width="1.5"/>
<path d="M51.5091 41.764C50.3483 40.8148 48.2998 40.248 46.0285 40.248C43.758 40.248 41.709 40.8146 40.5482 41.7638C39.8276 42.3529 39.7213 43.4144 40.3102 44.1348C40.8999 44.8556 41.9615 44.9624 42.6818 44.3728C43.0529 44.0695 44.2502 43.6183 46.0287 43.6183C47.8074 43.6183 49.0049 44.0697 49.3755 44.373C50.0868 44.9544 51.1656 44.8457 51.7467 44.1352C52.3358 43.4146 52.2295 42.3531 51.5091 41.764Z" fill="#3DE0FF" stroke="#3DE0FF" stroke-width="1.5"/>
<path d="M46.0285 50.3217C47.3794 50.3217 48.4745 49.2266 48.4745 47.8757C48.4745 46.5248 47.3794 45.4297 46.0285 45.4297C44.6776 45.4297 43.5825 46.5248 43.5825 47.8757C43.5825 49.2266 44.6776 50.3217 46.0285 50.3217Z" fill="#3DE0FF" stroke="#3DE0FF" stroke-width="1.5"/>
<path d="M71.4512 41.7638C70.2907 40.8148 68.2419 40.248 65.971 40.248C63.7001 40.248 61.6514 40.8146 60.4904 41.764C59.77 42.3531 59.6637 43.4146 60.2528 44.1352C60.5864 44.5425 61.0702 44.7535 61.5586 44.7535C61.9337 44.7535 62.3114 44.6289 62.6244 44.373C62.995 44.0697 64.1926 43.6183 65.9712 43.6183C67.7497 43.6183 68.9472 44.0697 69.3181 44.3728C70.0391 44.9626 71.1006 44.8551 71.6893 44.135C72.2784 43.4142 72.1718 42.3526 71.4512 41.7638Z" fill="#3DE0FF" stroke="#3DE0FF" stroke-width="1.5"/>
<path d="M65.9724 50.3217C67.3232 50.3217 68.4183 49.2266 68.4183 47.8757C68.4183 46.5248 67.3232 45.4297 65.9724 45.4297C64.6215 45.4297 63.5264 46.5248 63.5264 47.8757C63.5264 49.2266 64.6215 50.3217 65.9724 50.3217Z" fill="#3DE0FF" stroke="#3DE0FF" stroke-width="1.5"/>
<path d="M110.877 93.2327C107.258 84.3051 100.029 77.1968 91.0431 73.7307C89.7098 73.2164 88.3343 72.7824 86.9391 72.4346V67.042C94.6965 64.1081 100.55 57.2683 102.087 48.9344C105.93 48.3053 108.873 44.963 108.873 40.9445C108.873 38.5997 107.867 36.4822 106.264 35.0007V29.5076C106.264 21.6574 102.919 14.1358 97.0883 8.87102C96.3976 8.24776 95.3324 8.30169 94.7085 8.99262C94.0848 9.68334 94.1392 10.7488 94.8299 11.3724C99.9548 15.9993 102.894 22.6092 102.894 29.5076V33.1264C102.758 33.0899 102.622 33.0568 102.485 33.0274C102.484 32.9416 102.479 32.8561 102.477 32.7706C102.407 29.8642 101.76 26.9915 100.598 24.3268C100.187 23.3845 99.703 22.4719 99.1616 21.5983C98.8707 21.1283 98.3675 20.8311 97.8156 20.8026C97.2656 20.7748 96.733 21.0183 96.395 21.4559C95.9471 22.0362 95.274 22.3692 94.5478 22.3692C93.2603 22.3692 92.2127 21.3218 92.2127 20.0343C92.2127 19.1038 91.4586 18.3493 90.5277 18.3493C89.5967 18.3493 88.8427 19.1038 88.8427 20.0343C88.8427 21.3218 87.7953 22.3692 86.5075 22.3692C85.2202 22.3692 84.1726 21.3218 84.1726 20.0343C84.1726 19.1038 83.4185 18.3493 82.4876 18.3493C81.5569 18.3493 80.8026 19.1038 80.8026 20.0343C80.8026 20.3913 80.7145 20.7551 80.5527 21.0728C80.3884 21.396 80.1505 21.6806 79.8603 21.898C79.8489 21.9066 79.8375 21.9157 79.8259 21.9238C78.7738 20.1808 77.5339 18.5695 76.1422 17.1107C76.1233 17.0907 76.1042 17.0707 76.085 17.051C73.8848 14.7586 71.3052 12.8383 68.4669 11.4077C67.4629 10.9015 66.3745 10.434 65.2937 10.0492C65.1489 9.99766 64.3011 9.60535 64.1928 9.68356C68.329 6.69702 73.2934 5.08097 78.4674 5.08097C82.3696 5.08097 86.0985 5.97364 89.5499 7.73407C90.3792 8.15688 91.3937 7.82774 91.8165 6.99866C92.2395 6.16958 91.9102 5.15488 91.0813 4.73206C87.151 2.72758 82.907 1.71094 78.4672 1.71094C71.6174 1.71094 65.0913 4.2014 59.9954 8.73932C58.6902 8.55069 57.3569 8.451 56.0004 8.451C54.6439 8.451 53.3104 8.55047 52.0054 8.73932C46.9095 4.2014 40.3834 1.71094 33.5336 1.71094C27.6834 1.71094 22.0861 3.50853 17.3462 6.9095C16.59 7.45198 16.4168 8.50493 16.9593 9.26096C17.502 10.0174 18.5554 10.1897 19.3108 9.64768C23.4744 6.66007 28.3926 5.08076 33.5336 5.08076C38.7077 5.08076 43.6721 6.69681 47.8082 9.68334C43.5498 10.9993 39.7267 13.314 36.6108 16.3512C35.516 17.4183 34.5047 18.5706 33.5961 19.8003C33.4679 19.9739 32.1122 21.877 32.1754 21.9232C32.1635 21.9146 32.1519 21.9056 32.1403 21.897C31.5689 21.4677 31.1989 20.757 31.1989 20.0336C31.1989 19.1031 30.4448 18.3486 29.5139 18.3486C28.5832 18.3486 27.8289 19.1031 27.8289 20.0336C27.8289 21.3212 26.7815 22.3686 25.4939 22.3686C24.2064 22.3686 23.1588 21.3212 23.1588 20.0336C23.1588 19.1031 22.4047 18.3486 21.4738 18.3486C20.5431 18.3486 19.7888 19.1031 19.7888 20.0336C19.7888 21.3212 18.7414 22.3686 17.4536 22.3686C16.7277 22.3686 16.0542 22.0358 15.6064 21.4555C15.2687 21.0178 14.7348 20.7744 14.1859 20.8019C13.6339 20.8303 13.131 21.1276 12.8399 21.5977C11.2206 24.213 10.1402 27.1744 9.73024 30.2245C9.6168 31.0691 9.54483 31.9179 9.52421 32.7698C9.52227 32.8553 9.51776 32.9408 9.51647 33.0265C9.37919 33.0559 9.24255 33.089 9.10741 33.1255V29.5067C9.10741 23.8385 11.0928 18.3151 14.6978 13.9542C15.291 13.2369 15.1898 12.1749 14.4727 11.5817C13.7555 10.9889 12.6931 11.0895 12.1004 11.8069C7.9971 16.7704 5.73738 23.0563 5.73738 29.5067V34.9998C4.13465 36.4814 3.12811 38.5989 3.12811 40.9437C3.12811 44.9621 6.07082 48.3044 9.91393 48.9337C11.4511 57.2679 17.3048 64.1075 25.0619 67.0414V72.4339C23.6667 72.7818 22.2913 73.2157 20.9582 73.7301C18.0208 74.8632 15.2408 76.3976 12.6955 78.2901C11.9489 78.8455 11.7934 79.901 12.3488 80.6478C12.9039 81.3944 13.9592 81.5497 14.7064 80.9946C16.5382 79.6325 18.5038 78.4757 20.568 77.5446C20.1145 77.7494 23.6532 82.061 24.0137 82.3893C25.5741 83.8105 27.449 84.8903 29.4716 85.4985C30.786 85.8936 32.161 86.1005 33.534 86.1005C33.6174 86.1005 33.701 86.0999 33.7839 86.0984C31.6294 87.8736 29.6845 89.9116 27.9893 92.18H5.29738C6.5439 89.7022 8.11398 87.3986 9.98419 85.308C10.6047 84.6145 10.5454 83.5491 9.85184 82.9288C9.15811 82.3083 8.09292 82.3676 7.47245 83.0611C4.77166 86.0803 2.63547 89.5024 1.12362 93.232C0.913071 93.7515 0.974731 94.3417 1.28776 94.8064C1.601 95.2713 2.12457 95.55 2.68531 95.55H25.764C24.9403 96.9649 24.2111 98.4411 23.5906 99.9721C23.3801 100.492 23.4418 101.082 23.7548 101.546C24.068 102.011 24.5916 102.29 25.1521 102.29H86.848C87.4086 102.29 87.9324 102.011 88.2456 101.546C88.5591 101.082 88.6203 100.492 88.4097 99.9723C87.7895 98.4413 87.0599 96.9654 86.2357 95.5502H109.315C109.875 95.5502 110.399 95.2715 110.712 94.8066C111.026 94.3423 111.087 93.7522 110.877 93.2327ZM102.474 45.2919C102.481 45.0513 102.486 44.81 102.486 44.5677V36.54C102.493 36.5431 102.501 36.5454 102.509 36.5486C102.818 36.6711 103.114 36.8275 103.391 37.0118C103.41 37.0245 103.429 37.0372 103.448 37.0503C104.687 37.9043 105.503 39.3326 105.503 40.9452C105.503 42.9538 104.244 44.6738 102.473 45.3574C102.474 45.3355 102.473 45.3136 102.474 45.2919ZM6.49749 40.9448C6.49749 39.0333 7.71609 37.2507 9.49198 36.5482C9.49929 36.5452 9.50681 36.5426 9.51454 36.5396V44.5672C9.51454 44.8096 9.51927 45.0508 9.52636 45.2915C9.52679 45.3134 9.52657 45.3351 9.52721 45.357C7.75669 44.6736 6.49749 42.9535 6.49749 40.9448ZM88.286 76.3258C88.2705 76.3608 88.2555 76.3961 88.2398 76.4309C87.6019 77.8321 86.6669 79.096 85.4971 80.0989C83.545 81.7723 81.0449 82.7311 78.4674 82.7311C76.7783 82.7311 75.1008 82.3206 73.5963 81.5549C71.4442 80.4592 69.6949 78.6285 68.6949 76.4313C68.6792 76.3965 68.6641 76.3613 68.6487 76.3262C69.7545 75.9653 70.8841 75.6643 72.023 75.428C72.8048 75.2658 73.3656 74.5768 73.3656 73.7782V68.0417C73.4519 68.0604 73.5385 68.0765 73.6251 68.0943C75.2055 68.4181 76.8458 68.5867 78.4676 68.5867C80.1191 68.5867 81.7732 68.417 83.3897 68.0788C83.449 68.0662 83.5092 68.0552 83.5689 68.0423V73.7782C83.5689 74.577 84.1294 75.2658 84.9114 75.428C86.0508 75.6639 87.1804 75.9649 88.286 76.3258ZM42.0051 70.8166H42.0053C43.6957 72.0328 45.5502 73.0342 47.5281 73.7823V74.3177C47.1003 74.1305 46.67 73.9486 46.2347 73.7784L46.1002 73.7275C46.0985 73.7268 46.0966 73.7264 46.0948 73.7258C44.766 73.214 43.3953 72.7813 42.0051 72.4348V70.8166V70.8166ZM35.548 54.1477C35.5465 54.137 35.545 54.1265 35.5435 54.1159C35.415 53.1872 35.3518 52.2451 35.3518 51.3075V41.2724V40.0512C35.3518 37.1811 35.9998 34.3671 37.2381 31.8113C37.5428 31.9744 37.862 32.1091 38.1923 32.2137C38.7423 32.3884 39.3236 32.4795 39.9205 32.4795C41.4873 32.4795 42.9083 31.8449 43.9404 30.8188C44.9725 31.8446 46.3935 32.4795 47.9605 32.4795C49.5274 32.4795 50.9484 31.8449 51.9805 30.8188C52.8837 31.7166 54.0844 32.3145 55.4201 32.4501C55.6109 32.4694 55.8045 32.4793 56.0004 32.4793C57.5673 32.4793 58.9882 31.8444 60.0203 30.8186C61.0525 31.8444 62.4736 32.4793 64.0405 32.4793C65.6073 32.4793 67.0283 31.8444 68.0604 30.8186C69.0925 31.8444 70.5137 32.4793 72.0806 32.4793C73.0347 32.4793 73.9508 32.2458 74.7631 31.8113C76.0019 34.3676 76.6494 37.1811 76.6494 40.0512V41.2724V51.3075C76.6494 51.9205 76.6202 52.5347 76.5667 53.1451C76.5639 53.1756 76.5613 53.2061 76.5586 53.2368C76.1426 57.6905 74.2269 61.9753 71.2019 65.2667L70.7505 65.742C68.2785 68.2675 65.1661 70.1637 61.6779 71.1625C61.6671 71.1657 61.6566 71.1689 61.6461 71.1719C59.8139 71.6914 57.9048 71.9565 56.0004 71.9565C54.0988 71.9565 52.1839 71.6931 50.3548 71.1719C50.3442 71.1689 50.3335 71.1655 50.323 71.1625C42.6075 68.9457 36.6495 62.0987 35.548 54.1477ZM45.924 78.7254C46.1327 78.3421 46.3277 77.9455 46.4996 77.5444C46.8451 77.7004 47.1882 77.8626 47.5281 78.0308V79.1748C46.7959 79.3572 46.0699 79.565 45.3508 79.7944C45.3221 79.8037 45.2928 79.8114 45.2643 79.8207C45.5008 79.4677 45.721 79.0984 45.924 78.7254ZM46.2779 83.036C47.354 82.6903 48.4487 82.3975 49.5555 82.1678C50.3374 82.0056 50.8981 81.3166 50.8981 80.518V74.7824C50.9583 74.7955 51.0191 74.8064 51.0792 74.8189C52.6963 75.1558 54.348 75.3266 56.0002 75.3266C57.5769 75.3266 59.1552 75.1704 60.7016 74.8634C60.8352 74.8372 60.9691 74.8112 61.1023 74.7822V80.518C61.1023 81.3168 61.6628 82.0056 62.4448 82.1678C63.5485 82.3968 64.641 82.6856 65.713 83.033C65.7481 83.0444 65.7833 83.0562 65.8183 83.0676C65.8031 83.1022 65.7882 83.1368 65.7728 83.1711C65.7468 83.2276 65.7203 83.2844 65.6935 83.3407C63.927 87.0396 60.1016 89.471 56.0002 89.471C51.8191 89.471 47.8686 86.889 46.1819 83.0672C46.2141 83.0568 46.2461 83.0463 46.2779 83.036ZM64.4723 79.1746V78.0323C64.8139 77.863 65.1572 77.6999 65.5012 77.5446C65.4512 77.5676 66.502 79.4569 66.6388 79.6675C66.6717 79.718 66.7026 79.7702 66.7361 79.8202C66.7069 79.8108 66.677 79.8026 66.6476 79.7934C66.4038 79.7156 66.1593 79.6402 65.9137 79.5676C65.4361 79.4262 64.9553 79.2952 64.4723 79.1746ZM65.9032 73.7264C65.9023 73.7268 65.9012 73.7271 65.9002 73.7273L65.75 73.7842C65.3231 73.9509 64.8971 74.1314 64.4721 74.3179V73.7821C66.4502 73.034 68.3045 72.0326 69.9949 70.8164V72.4343C68.6042 72.7813 67.2328 73.2142 65.9032 73.7264ZM81.4172 24.9056C81.5017 24.8536 82.5196 24.1111 82.4801 24.0716C82.6736 24.2648 82.8812 24.4442 83.1005 24.6079C84.0742 25.3351 85.2911 25.7392 86.5067 25.7392C88.0735 25.7392 89.4947 25.1044 90.5268 24.0785C91.5589 25.1044 92.9801 25.7392 94.547 25.7392C95.5011 25.7392 96.417 25.5057 97.2295 25.0711C98.4678 27.6271 99.1158 30.4409 99.1158 33.3112V34.5323V44.5674C99.1158 45.3815 99.0492 46.1869 98.9723 46.996C97.9937 55.3107 92.0563 62.1292 84.2063 64.4039C84.1745 64.4132 84.143 64.4233 84.1109 64.4323C81.3996 65.2008 78.534 65.4017 75.7402 65.0367C75.7305 65.0354 75.7211 65.0336 75.7114 65.0323C76.3336 64.1399 76.8883 63.2075 77.381 62.2454C77.3848 62.2379 77.3887 62.2308 77.3924 62.2235C78.4 60.2519 79.1517 58.0888 79.578 55.8942C79.5812 55.8783 79.584 55.8624 79.5872 55.8465C79.5982 55.7891 79.6098 55.7322 79.6203 55.6748C83.4632 55.0458 86.4059 51.7035 86.4059 47.6853C86.4059 45.3405 85.3994 43.223 83.7966 41.7414V36.2481C83.7966 33.5043 83.3951 30.8531 82.6511 28.3476C82.6481 28.3378 82.6453 28.3281 82.6423 28.3182C82.2972 27.1626 81.8802 26.0254 81.3893 24.9237C81.399 24.9179 81.408 24.9114 81.4172 24.9056ZM80.9235 43.7513C80.9429 43.7642 80.9622 43.7773 80.9813 43.7906C82.2205 44.6446 83.0359 46.0722 83.0359 47.6848C83.0359 49.6934 81.7769 51.4134 80.0064 52.0971C80.0072 52.0754 80.0068 52.0537 80.0074 52.032C80.0147 51.7913 80.0193 51.5501 80.0193 51.3077V43.2799C80.0263 43.2827 80.0336 43.285 80.0405 43.2881C80.3503 43.4107 80.6462 43.5669 80.9235 43.7513ZM31.5734 36.2481C31.5734 33.1945 32.1489 30.1384 33.2713 27.2983C35.7246 21.0892 40.7835 16.0236 47.006 13.5406C48.1202 13.0959 49.3377 12.7137 50.5346 12.4385C54.1149 11.6152 57.8857 11.6167 61.4654 12.4381C62.204 12.6074 62.9347 12.8119 63.6542 13.0514C67.4799 14.3242 70.9593 16.551 73.7364 19.4712C76.2634 22.1281 78.1634 25.3626 79.281 28.8532C79.2879 28.8744 79.2952 28.8959 79.3019 28.9172C79.8177 30.5622 80.1602 32.2632 80.3207 33.9853C80.3224 34.0058 80.3243 34.0264 80.326 34.0468C80.3926 34.7783 80.4262 35.5137 80.4262 36.2481V39.8669C80.2906 39.8304 80.1546 39.7973 80.0173 39.7679C80.0162 39.6821 80.0117 39.5966 80.0096 39.5111C79.9389 36.594 79.2931 33.6734 78.1037 31.0078C77.6936 30.0885 77.2241 29.1946 76.6937 28.3388C76.4026 27.8688 75.8996 27.5714 75.3477 27.5431C74.7938 27.5158 74.2649 27.7588 73.9271 28.1966C73.4794 28.7769 72.8061 29.1097 72.0799 29.1097C70.7924 29.1097 69.7448 28.0623 69.7448 26.7748C69.7448 25.8443 68.9907 25.0898 68.0598 25.0898C67.1289 25.0898 66.3748 25.8443 66.3748 26.7748C66.3748 28.0623 65.3274 29.1097 64.0398 29.1097C62.7523 29.1097 61.7047 28.0623 61.7047 26.7748C61.7047 25.8443 60.9506 25.0898 60.0197 25.0898C59.089 25.0898 58.3347 25.8443 58.3347 26.7748C58.3347 28.0623 57.2873 29.1097 55.9998 29.1097C54.7122 29.1097 53.6648 28.0623 53.6648 26.7748C53.6648 25.8443 52.9107 25.0898 51.9798 25.0898C51.0491 25.0898 50.2948 25.8443 50.2948 26.7748C50.2948 28.0469 49.2307 29.1097 47.9599 29.1097C46.6968 29.1097 45.625 28.037 45.625 26.7748C45.625 25.8443 44.8709 25.0898 43.94 25.0898C43.0093 25.0898 42.2549 25.8443 42.2549 26.7748C42.2549 28.0466 41.1908 29.1097 39.92 29.1097C39.1992 29.1097 38.5119 28.7659 38.0728 28.1966C37.7351 27.759 37.2005 27.5158 36.6523 27.5431C36.1003 27.5714 35.5974 27.8688 35.3063 28.3388C34.4533 29.7166 33.7396 31.2044 33.2152 32.7384C32.7634 34.0599 32.4287 35.4121 32.2209 36.7936C32.0847 37.6991 32.0116 38.6135 31.9899 39.5292C31.9882 39.6089 31.9839 39.6881 31.9831 39.7683C31.8458 39.7977 31.7091 39.8308 31.574 39.8673V36.2481H31.5734ZM31.0199 43.7899C31.3128 43.588 31.6292 43.4213 31.9588 43.2883C31.9663 43.2853 31.9736 43.2829 31.9811 43.2799V51.3075C31.9811 51.5533 31.9861 51.798 31.9936 52.0421C31.994 52.0603 31.9938 52.079 31.9942 52.0973C30.2237 51.4136 28.9645 49.6936 28.9645 47.6848C28.9645 46.0722 29.7803 44.6439 31.0199 43.7899ZM13.0281 46.9963C12.9333 46.1906 12.8846 45.3787 12.8846 44.5677V34.5325V33.3114C12.8846 30.4413 13.5325 27.6273 14.7709 25.0715C15.5832 25.5061 16.4993 25.7394 17.4534 25.7394C19.0203 25.7394 20.4415 25.1046 21.4736 24.0787C22.5057 25.1046 23.9269 25.7394 25.4937 25.7394C25.6901 25.7394 25.8839 25.7296 26.0751 25.71C27.4136 25.5738 28.6169 24.9729 29.5205 24.0718C29.4937 24.0993 30.4124 24.7969 30.5056 24.8558C30.5314 24.8721 30.5565 24.8895 30.5829 24.9056C30.5924 24.9114 30.6016 24.9179 30.6111 24.9239C30.3685 25.4683 30.1459 26.0213 29.9391 26.5803C29.727 27.1533 29.5326 27.7328 29.3583 28.3182C29.3553 28.3281 29.3523 28.3382 29.3493 28.3481C28.6053 30.8536 28.2038 33.5047 28.2038 36.2483V41.7414C26.601 43.223 25.5945 45.3405 25.5945 47.6853C25.5945 51.7035 28.537 55.0458 32.3801 55.6748C32.3915 55.7363 32.4037 55.7975 32.4153 55.8588C32.4168 55.8671 32.4186 55.8751 32.4201 55.8832C33.0562 59.1519 34.3842 62.3002 36.2885 65.0326C36.2791 65.0339 36.2698 65.0356 36.2604 65.0369C33.4687 65.4068 30.5963 65.2038 27.883 64.431C19.9888 62.1818 14.0104 55.3425 13.0281 46.9963ZM33.5334 82.7309C30.3039 82.7309 27.1283 81.1911 25.1248 78.6605C24.6006 77.9986 23.9518 77.1444 23.7301 76.3262C24.8028 75.9174 25.966 75.6609 27.0887 75.4275C27.8705 75.2653 28.4313 74.5763 28.4313 73.7778V68.0419C28.4897 68.0545 28.5484 68.0653 28.6068 68.0773C30.225 68.4161 31.8799 68.5863 33.5334 68.5863C35.2465 68.5863 36.961 68.4037 38.6355 68.0414V73.7778C38.6355 74.5766 39.196 75.2653 39.978 75.4275C41.0841 75.6572 42.3261 75.8798 43.3534 76.3398C41.9353 79.1282 39.7389 81.3059 36.6954 82.2516C35.6752 82.5687 34.6018 82.7309 33.5334 82.7309ZM27.7653 98.9207C28.5226 97.4165 29.3985 95.9823 30.378 94.6268C32.9423 91.0759 36.2445 88.0674 40.0199 85.8464C40.0259 85.8427 40.0317 85.8391 40.038 85.8358C41.011 85.2697 42.0094 84.7513 43.0361 84.2894C42.948 84.3291 44.1411 86.3807 44.2569 86.5528C46.8569 90.4219 51.331 92.8415 56 92.8415C58.2502 92.8415 60.5125 92.2777 62.5078 91.2407C65.3721 89.7516 67.6935 87.2562 68.9645 84.2883C69.7903 84.6602 70.6018 85.0667 71.3926 85.5082C74.9159 87.4809 78.0289 90.114 80.5592 93.2363C80.9225 93.6847 81.2724 94.1443 81.611 94.6118C82.5952 95.9717 83.475 97.4114 84.2351 98.9207H27.7653V98.9207ZM84.0117 92.181V92.1808C82.3174 89.9131 80.3722 87.8756 78.2165 86.0992C78.2999 86.1005 78.3832 86.1014 78.467 86.1014C82.7843 86.1014 86.9978 84.015 89.6341 80.6005C90.3569 79.6643 90.9672 78.6328 91.4328 77.5453C98.0343 80.523 103.45 85.722 106.702 92.1808H84.0117V92.181Z" fill="#3DE0FF" stroke="#3DE0FF" stroke-width="1.5"/>
</svg>
