<svg width="32" height="32" viewBox="0 0 32 32" fill="none" xmlns="http://www.w3.org/2000/svg">
<path fill-rule="evenodd" clip-rule="evenodd" d="M12.333 21.3333C12.333 20.0447 13.3777 19 14.6663 19H17.333C18.6217 19 19.6663 20.0447 19.6663 21.3333V30.6667C19.6663 31.2189 19.2186 31.6667 18.6663 31.6667H13.333C12.7807 31.6667 12.333 31.2189 12.333 30.6667V21.3333ZM14.6663 21C14.4822 21 14.333 21.1492 14.333 21.3333V29.6667H17.6663V21.3333C17.6663 21.1492 17.5171 21 17.333 21H14.6663Z" fill="#170041"/>
<path fill-rule="evenodd" clip-rule="evenodd" d="M11.9993 0.333008C10.7107 0.333008 9.66602 1.37767 9.66602 2.66634V10.6663C9.66602 11.955 10.7107 12.9997 11.9993 12.9997H19.9993C21.288 12.9997 22.3327 11.955 22.3327 10.6663V2.66634C22.3327 1.37767 21.288 0.333008 19.9993 0.333008H11.9993ZM15.9993 3.66634C16.5516 3.66634 16.9993 4.11406 16.9993 4.66634V5.66634H17.9993C18.5516 5.66634 18.9993 6.11406 18.9993 6.66634C18.9993 7.21862 18.5516 7.66634 17.9993 7.66634H16.9993V8.66634C16.9993 9.21862 16.5516 9.66634 15.9993 9.66634C15.4471 9.66634 14.9993 9.21862 14.9993 8.66634V7.66634H13.9993C13.4471 7.66634 12.9993 7.21862 12.9993 6.66634C12.9993 6.11406 13.4471 5.66634 13.9993 5.66634H14.9993V4.66634C14.9993 4.11406 15.4471 3.66634 15.9993 3.66634Z" fill="#170041"/>
<path fill-rule="evenodd" clip-rule="evenodd" d="M19 16C19 16.5523 18.5523 17 18 17H14C13.4477 17 13 16.5523 13 16C13 15.4477 13.4477 15 14 15H18C18.5523 15 19 15.4477 19 16Z" fill="#170041"/>
<path fill-rule="evenodd" clip-rule="evenodd" d="M5.66602 7.99935C5.66602 6.71068 6.71068 5.66602 7.99935 5.66602H10.666C11.2183 5.66602 11.666 6.11374 11.666 6.66602C11.666 7.2183 11.2183 7.66602 10.666 7.66602H7.99935C7.81526 7.66602 7.66602 7.81526 7.66602 7.99935V29.666H24.3327V7.99935C24.3327 7.81526 24.1835 7.66602 23.9993 7.66602H21.3327C20.7804 7.66602 20.3327 7.2183 20.3327 6.66602C20.3327 6.11374 20.7804 5.66602 21.3327 5.66602H23.9993C25.288 5.66602 26.3327 6.71068 26.3327 7.99935V30.666C26.3327 31.2183 25.8849 31.666 25.3327 31.666H6.66602C6.11374 31.666 5.66602 31.2183 5.66602 30.666V7.99935Z" fill="#170041"/>
<path fill-rule="evenodd" clip-rule="evenodd" d="M0.333008 14.6663C0.333008 13.3777 1.37767 12.333 2.66634 12.333H5.33301C6.62167 12.333 7.66634 13.3777 7.66634 14.6663V30.6663C7.66634 31.2186 7.21862 31.6663 6.66634 31.6663H1.33301C0.780722 31.6663 0.333008 31.2186 0.333008 30.6663V14.6663ZM2.66634 14.333C2.48225 14.333 2.33301 14.4822 2.33301 14.6663V29.6663H5.66634V14.6663C5.66634 14.4822 5.5171 14.333 5.33301 14.333H2.66634Z" fill="#170041"/>
<path fill-rule="evenodd" clip-rule="evenodd" d="M24.333 14.6663C24.333 13.3777 25.3777 12.333 26.6663 12.333H29.333C30.6217 12.333 31.6663 13.3777 31.6663 14.6663V30.6663C31.6663 31.2186 31.2186 31.6663 30.6663 31.6663H25.333C24.7807 31.6663 24.333 31.2186 24.333 30.6663V14.6663ZM26.6663 14.333C26.4822 14.333 26.333 14.4822 26.333 14.6663V29.6663H29.6663V14.6663C29.6663 14.4822 29.5171 14.333 29.333 14.333H26.6663Z" fill="#170041"/>
</svg>
