<svg width="32" height="32" viewBox="0 0 32 32" fill="none" xmlns="http://www.w3.org/2000/svg">
<g clip-path="url(#clip0_52:4746)">
<path d="M10.7172 13.229C9.97339 12.4511 8.73989 12.4233 7.96132 13.1672L2.32934 18.5505C-0.679387 21.4266 -0.787734 26.2126 2.08764 29.22C5.20124 32.478 10.3846 32.5954 13.6419 29.4818L18.8252 24.5263C19.1989 24.1686 19.4163 23.6776 19.4274 23.1609C19.4399 22.6434 19.2447 22.1434 18.887 21.7697L10.7172 13.229Z" fill="#170041"/>
<path d="M27.7107 1.1056C23.8998 -0.854373 19.177 0.702774 17.2177 4.51438L13.8291 11.1C13.5929 11.5597 13.5485 12.0952 13.7061 12.5877C13.8638 13.0801 14.2118 13.4899 14.6716 13.726L25.1847 19.1281C26.1418 19.6198 27.3169 19.2434 27.8094 18.2863L31.1147 11.8612C33.1191 7.96275 31.6078 3.10934 27.7107 1.1056ZM28.5463 10.3089L25.8431 15.5617L17.1885 11.1139L19.959 5.72773C21.1648 3.38437 24.0249 2.51065 26.3689 3.71636C28.7963 4.96583 29.795 7.8801 28.5463 10.3089Z" fill="#170041"/>
<path d="M24.5 25C25.3284 25 26 24.3284 26 23.5C26 22.6716 25.3284 22 24.5 22C23.6716 22 23 22.6716 23 23.5C23 24.3284 23.6716 25 24.5 25Z" fill="#170041"/>
<path d="M22 28C22.5523 28 23 27.5523 23 27C23 26.4477 22.5523 26 22 26C21.4477 26 21 26.4477 21 27C21 27.5523 21.4477 28 22 28Z" fill="#170041"/>
<path d="M27 28C27.5523 28 28 27.5523 28 27C28 26.4477 27.5523 26 27 26C26.4477 26 26 26.4477 26 27C26 27.5523 26.4477 28 27 28Z" fill="#170041"/>
<path d="M10.5 10C11.3284 10 12 9.32843 12 8.5C12 7.67157 11.3284 7 10.5 7C9.67157 7 9 7.67157 9 8.5C9 9.32843 9.67157 10 10.5 10Z" fill="#170041"/>
<path d="M12.5 7C12.7761 7 13 6.77614 13 6.5C13 6.22386 12.7761 6 12.5 6C12.2239 6 12 6.22386 12 6.5C12 6.77614 12.2239 7 12.5 7Z" fill="#170041"/>
<path d="M8.5 6C8.77614 6 9 5.77614 9 5.5C9 5.22386 8.77614 5 8.5 5C8.22386 5 8 5.22386 8 5.5C8 5.77614 8.22386 6 8.5 6Z" fill="#170041"/>
</g>
<defs>
<clipPath id="clip0_52:4746">
<rect width="32" height="32" fill="white"/>
</clipPath>
</defs>
</svg>
