<svg width="55" height="55" viewBox="0 0 55 55" fill="none" xmlns="http://www.w3.org/2000/svg">
<path d="M28.1289 20.5897C32.9861 20.5897 36.9237 16.6521 36.9237 11.7949C36.9237 6.9376 32.9861 3 28.1289 3C23.2716 3 19.334 6.9376 19.334 11.7949C19.334 16.6521 23.2716 20.5897 28.1289 20.5897Z" stroke="#A42BAD" stroke-width="5.02564" stroke-linecap="round" stroke-linejoin="round"/>
<path d="M3 49.4873C3 38.3844 13.1254 29.3848 25.6154 29.3848" stroke="#A42BAD" stroke-width="5.02564" stroke-linecap="round" stroke-linejoin="round"/>
<path d="M40.6925 52.0002C46.9375 52.0002 52.0002 46.9375 52.0002 40.6925C52.0002 34.4474 46.9375 29.3848 40.6925 29.3848C34.4474 29.3848 29.3848 34.4474 29.3848 40.6925C29.3848 46.9375 34.4474 52.0002 40.6925 52.0002Z" stroke="#A42BAD" stroke-width="5.02564"/>
<path d="M39.4355 36.9238V41.9495H44.4612" stroke="#A42BAD" stroke-width="5.02564" stroke-linecap="round" stroke-linejoin="round"/>
</svg>
