<svg width="32" height="43" viewBox="0 0 32 43" fill="none" xmlns="http://www.w3.org/2000/svg">
<path d="M31.4167 8.75L23.2583 0.583333C22.8833 0.208333 22.375 0 21.8417 0H21.3333V10.6667H32V10.1583C32 9.63333 31.7917 9.125 31.4167 8.75ZM18.6667 11.3333V0H2C0.891667 0 0 0.891667 0 2V40.6667C0 41.775 0.891667 42.6667 2 42.6667H30C31.1083 42.6667 32 41.775 32 40.6667V13.3333H20.6667C19.5667 13.3333 18.6667 12.4333 18.6667 11.3333ZM5.33333 6C5.33333 5.63167 5.63167 5.33333 6 5.33333H12.6667C13.035 5.33333 13.3333 5.63167 13.3333 6V7.33333C13.3333 7.70167 13.035 8 12.6667 8H6C5.63167 8 5.33333 7.70167 5.33333 7.33333V6ZM5.33333 12.6667V11.3333C5.33333 10.965 5.63167 10.6667 6 10.6667H12.6667C13.035 10.6667 13.3333 10.965 13.3333 11.3333V12.6667C13.3333 13.035 13.035 13.3333 12.6667 13.3333H6C5.63167 13.3333 5.33333 13.035 5.33333 12.6667ZM17.3333 34.6567V36.6667C17.3333 37.035 17.035 37.3333 16.6667 37.3333H15.3333C14.965 37.3333 14.6667 37.035 14.6667 36.6667V34.6425C13.7258 34.5942 12.8108 34.2658 12.0525 33.6967C11.7275 33.4525 11.7108 32.9658 12.005 32.685L12.9842 31.7508C13.215 31.5308 13.5583 31.5208 13.8283 31.69C14.1508 31.8917 14.5167 32 14.8967 32H17.2392C17.7808 32 18.2225 31.5067 18.2225 30.9008C18.2225 30.405 17.9217 29.9683 17.4917 29.84L13.7417 28.715C12.1925 28.25 11.11 26.7633 11.11 25.0992C11.11 23.0558 12.6975 21.3958 14.6658 21.3433V19.3333C14.6658 18.965 14.9642 18.6667 15.3325 18.6667H16.6658C17.0342 18.6667 17.3325 18.965 17.3325 19.3333V21.3575C18.2733 21.4058 19.1883 21.7333 19.9467 22.3033C20.2717 22.5475 20.2883 23.0342 19.9942 23.315L19.015 24.2492C18.7842 24.4692 18.4408 24.4792 18.1708 24.31C17.8483 24.1075 17.4825 24 17.1025 24H14.76C14.2183 24 13.7767 24.4933 13.7767 25.0992C13.7767 25.595 14.0775 26.0317 14.5075 26.16L18.2575 27.285C19.8067 27.75 20.8892 29.2367 20.8892 30.9008C20.8892 32.945 19.3017 34.6042 17.3333 34.6567Z" fill="#A42BAD"/>
</svg>
