<svg width="657" height="593" viewBox="0 0 657 593" fill="none" xmlns="http://www.w3.org/2000/svg">
<circle cx="37.2059" cy="520.206" r="2.20588" fill="#FF00FF"/>
<circle cx="54.8533" cy="520.206" r="2.20588" fill="#FF00FF"/>
<circle cx="72.4998" cy="520.206" r="2.20588" fill="#FF00FF"/>
<circle cx="90.1473" cy="520.206" r="2.20588" fill="#FF00FF"/>
<circle cx="90.1473" cy="537.853" r="2.20588" fill="#FF00FF"/>
<circle cx="90.1473" cy="555.5" r="2.20588" fill="#FF00FF"/>
<circle cx="90.1473" cy="573.147" r="2.20588" fill="#FF00FF"/>
<circle cx="90.1473" cy="590.794" r="2.20588" fill="#FF00FF"/>
<circle cx="72.4998" cy="537.853" r="2.20588" fill="#FF00FF"/>
<circle cx="54.8533" cy="537.853" r="2.20588" fill="#FF00FF"/>
<circle cx="37.2059" cy="537.853" r="2.20588" fill="#FF00FF"/>
<circle cx="37.2059" cy="555.5" r="2.20588" fill="#FF00FF"/>
<circle cx="37.2059" cy="573.147" r="2.20588" fill="#FF00FF"/>
<circle cx="37.2059" cy="590.794" r="2.20588" fill="#FF00FF"/>
<circle cx="54.8533" cy="590.794" r="2.20588" fill="#FF00FF"/>
<circle cx="72.4998" cy="590.794" r="2.20588" fill="#FF00FF"/>
<circle cx="72.4998" cy="573.147" r="2.20588" fill="#FF00FF"/>
<circle cx="72.4998" cy="555.5" r="2.20588" fill="#FF00FF"/>
<circle cx="54.8533" cy="555.5" r="2.20588" fill="#FF00FF"/>
<circle cx="54.8533" cy="573.147" r="2.20588" fill="#FF00FF"/>
<circle cx="107.794" cy="520.206" r="2.20588" fill="#FF00FF"/>
<circle cx="125.441" cy="520.206" r="2.20588" fill="#FF00FF"/>
<circle cx="125.441" cy="537.853" r="2.20588" fill="#FF00FF"/>
<circle cx="107.794" cy="537.853" r="2.20588" fill="#FF00FF"/>
<circle cx="107.794" cy="555.5" r="2.20588" fill="#FF00FF"/>
<circle cx="107.794" cy="573.147" r="2.20588" fill="#FF00FF"/>
<circle cx="107.794" cy="590.794" r="2.20588" fill="#FF00FF"/>
<circle cx="125.441" cy="590.794" r="2.20588" fill="#FF00FF"/>
<circle cx="125.441" cy="555.5" r="2.20588" fill="#FF00FF"/>
<circle cx="125.441" cy="573.147" r="2.20588" fill="#FF00FF"/>
<path d="M98 283.5C98 151.78 204.78 45 336.5 45C468.22 45 575 151.78 575 283.5V547H98V283.5Z" fill="#F4F4F4"/>
<circle cx="538.881" cy="326.881" r="2.88095" fill="#3DE0FF"/>
<circle cx="561.929" cy="326.881" r="2.88095" fill="#3DE0FF"/>
<circle cx="584.977" cy="326.881" r="2.88095" fill="#3DE0FF"/>
<circle cx="608.024" cy="326.881" r="2.88095" fill="#3DE0FF"/>
<circle cx="608.024" cy="349.929" r="2.88095" fill="#3DE0FF"/>
<circle cx="608.024" cy="372.977" r="2.88095" fill="#3DE0FF"/>
<circle cx="608.024" cy="396.024" r="2.88095" fill="#3DE0FF"/>
<circle cx="608.024" cy="419.071" r="2.88095" fill="#3DE0FF"/>
<circle cx="584.977" cy="349.929" r="2.88095" fill="#3DE0FF"/>
<circle cx="561.929" cy="349.929" r="2.88095" fill="#3DE0FF"/>
<circle cx="538.881" cy="349.929" r="2.88095" fill="#3DE0FF"/>
<circle cx="538.881" cy="372.977" r="2.88095" fill="#3DE0FF"/>
<circle cx="538.881" cy="396.024" r="2.88095" fill="#3DE0FF"/>
<circle cx="538.881" cy="419.071" r="2.88095" fill="#3DE0FF"/>
<circle cx="561.929" cy="419.071" r="2.88095" fill="#3DE0FF"/>
<circle cx="584.977" cy="419.071" r="2.88095" fill="#3DE0FF"/>
<circle cx="584.977" cy="396.024" r="2.88095" fill="#3DE0FF"/>
<circle cx="584.977" cy="372.977" r="2.88095" fill="#3DE0FF"/>
<circle cx="561.929" cy="372.977" r="2.88095" fill="#3DE0FF"/>
<circle cx="561.929" cy="396.024" r="2.88095" fill="#3DE0FF"/>
<circle cx="631.071" cy="326.881" r="2.88095" fill="#3DE0FF"/>
<circle cx="654.119" cy="326.881" r="2.88095" fill="#3DE0FF"/>
<circle cx="654.119" cy="349.929" r="2.88095" fill="#3DE0FF"/>
<circle cx="631.071" cy="349.929" r="2.88095" fill="#3DE0FF"/>
<circle cx="631.071" cy="372.977" r="2.88095" fill="#3DE0FF"/>
<circle cx="631.071" cy="396.024" r="2.88095" fill="#3DE0FF"/>
<circle cx="631.071" cy="419.071" r="2.88095" fill="#3DE0FF"/>
<circle cx="654.119" cy="419.071" r="2.88095" fill="#3DE0FF"/>
<circle cx="654.119" cy="372.977" r="2.88095" fill="#3DE0FF"/>
<circle cx="654.119" cy="396.024" r="2.88095" fill="#3DE0FF"/>
<circle cx="161" cy="117" r="38" fill="#3DE0FF"/>
<circle cx="557.998" cy="534" r="50" fill="#3DE0FF"/>
<g filter="url(#filter0_d_625:5675)">
<rect x="42" y="300" width="92" height="92" rx="18" fill="white"/>
</g>
<circle cx="88" cy="346" r="26" fill="#170041"/>
<path d="M87.6229 331.556C88.2501 331.556 88.8714 331.556 89.4986 331.556C89.6158 331.573 89.7271 331.603 89.8444 331.614C91.1163 331.714 92.353 331.96 93.5546 332.394C96.6025 333.502 99.0819 335.371 100.928 338.05C102.165 339.838 102.991 341.801 103.343 343.952C103.431 344.509 103.495 345.066 103.572 345.629C103.572 346.256 103.572 346.877 103.572 347.504C103.554 347.628 103.537 347.751 103.513 347.874C103.355 348.788 103.273 349.72 103.021 350.605C102.054 354.034 100.108 356.795 97.1887 358.852C93.9766 361.109 90.3953 361.917 86.521 361.437C84.3288 361.167 82.3008 360.405 80.4545 359.192C76.9142 356.865 74.7045 353.63 73.8429 349.491C73.7081 348.835 73.6494 348.167 73.5557 347.499C73.5557 346.871 73.5557 346.25 73.5557 345.623C73.6026 345.248 73.6377 344.873 73.6905 344.498C73.9953 342.3 74.7338 340.266 75.9588 338.413C78.2741 334.908 81.4861 332.71 85.6008 331.849C86.2689 331.708 86.9489 331.649 87.6229 331.556ZM101.057 346.572C101.057 339.685 95.4303 334.058 88.5549 334.064C81.6854 334.07 76.076 339.674 76.0643 346.549C76.0467 353.419 81.6971 359.069 88.5666 359.057C95.442 359.051 101.057 353.436 101.057 346.572Z" fill="white"/>
<path d="M88.5489 355.341C85.2782 355.294 82.541 353.337 81.4684 350.242C81.1987 349.451 81.4859 348.759 82.1776 348.513C82.8341 348.278 83.5609 348.624 83.8246 349.404C84.4049 351.121 85.6123 352.217 87.3649 352.668C89.8325 353.302 92.3939 351.918 93.2438 349.521C93.3962 349.093 93.5896 348.718 94.041 348.536C94.5157 348.355 94.9553 348.419 95.3246 348.747C95.6997 349.07 95.8521 349.498 95.7056 349.99C95.014 352.317 93.5017 353.899 91.2744 354.808C90.87 354.972 90.4421 355.089 90.0142 355.165C89.5453 355.259 89.0471 355.283 88.5489 355.341Z" fill="white"/>
<path d="M93.5604 344.053C92.1771 344.047 91.0752 342.945 91.0752 341.561C91.0752 340.172 92.2064 339.047 93.5897 339.059C94.9613 339.076 96.0808 340.208 96.0691 341.567C96.0515 342.951 94.9378 344.058 93.5604 344.053Z" fill="white"/>
<path d="M83.5614 344.053C82.184 344.053 81.0703 342.945 81.0586 341.567C81.0528 340.202 82.1664 339.07 83.5438 339.059C84.9271 339.047 86.0584 340.178 86.0525 341.561C86.0466 342.951 84.9447 344.053 83.5614 344.053Z" fill="white"/>
<path fill-rule="evenodd" clip-rule="evenodd" d="M191.825 350.45L181.688 322.879C184 314.658 184.578 307.148 183.422 300.35C182.266 293.552 184.092 287.56 188.899 282.375C183.317 280.38 179.421 281.786 177.208 286.594C174.996 291.401 173.086 295.263 171.476 298.18C168.197 292.24 166.071 287.946 165.098 285.298C159.243 269.356 157.137 261.163 155.58 261.889C153.634 262.796 153.634 269.624 155.58 282.375C153.872 279.389 152.683 277.19 152.012 275.778C145.722 262.529 142.916 258.694 141.301 259.588C138.49 261.144 147.502 285.298 146.098 285.298C144.693 285.298 136.247 266.207 133.894 267.572C132.326 268.483 134.348 276.583 139.962 291.872C135.129 283.09 131.96 279.032 130.455 279.698C128.197 280.696 134.991 295.552 136.736 300.554C138.481 305.555 140.455 321.617 153.745 334.27L160.392 360.74L191.825 350.45Z" fill="#FFA07F"/>
<path fill-rule="evenodd" clip-rule="evenodd" d="M333.499 253.198C330.301 235.844 330.301 225.928 333.499 223.449C342.831 205.722 356.893 198.493 375.688 201.764C403.88 206.671 415.864 220.867 410.506 252.249C406.934 273.169 383.483 278.201 340.153 267.342L333.499 253.198Z" fill="#062721"/>
<mask id="mask0_625:5675" style="mask-type:alpha" maskUnits="userSpaceOnUse" x="149" y="312" width="361" height="235">
<path d="M456.176 526.958C486.836 528.725 504.113 523.078 508.007 510.015C513.848 490.422 496.166 410.509 479.355 366.767C468.149 337.606 441.325 319.459 398.885 312.327L347.326 314.656C304.625 324.218 279.218 335.972 271.102 349.917C262.987 363.861 247.355 387.825 224.207 421.806C203.379 362.772 192.965 333.255 192.965 333.255L149.944 349.917C149.944 349.917 184.88 503.682 213.32 508.116C232.28 511.072 256.778 494.884 286.813 459.551V546.007H456.176V526.958Z" fill="white"/>
</mask>
<g mask="url(#mask0_625:5675)">
<path d="M456.176 526.958C486.836 528.725 504.113 523.078 508.007 510.015C513.848 490.422 496.166 410.509 479.355 366.767C468.149 337.606 441.325 319.459 398.885 312.327L347.326 314.656C304.625 324.218 279.218 335.972 271.102 349.917C262.987 363.861 247.355 387.825 224.207 421.806C203.379 362.772 192.965 333.255 192.965 333.255L149.944 349.917C149.944 349.917 184.88 503.682 213.32 508.116C232.28 511.072 256.778 494.884 286.813 459.551V546.007H456.176V526.958Z" fill="#3DE0FF"/>
<path fill-rule="evenodd" clip-rule="evenodd" d="M343.415 313.899L368.115 435.539L394.797 311.57L343.415 313.899Z" fill="white"/>
<path d="M343.415 313.899L317.707 364.963L342.271 371.78L325.854 385.125L368.115 456.617" stroke="#062721" stroke-width="0.959327"/>
<path d="M395.257 311.881L420.965 362.945L396.401 369.761L412.818 383.107L370.608 456.616" stroke="#062721" stroke-width="0.959327"/>
<path d="M415.4 352.661C414.511 337.54 411.575 324.095 406.591 312.327" stroke="white" stroke-width="3.19776"/>
<path d="M337.187 313.899C321.683 318.479 313.932 335.828 313.932 365.948C313.932 396.068 313.932 414.662 313.932 421.731" stroke="white" stroke-width="3.19776"/>
<path d="M313.481 431.342C318.988 431.342 323.452 426.826 323.452 421.256C323.452 415.686 318.988 411.17 313.481 411.17C307.973 411.17 303.509 415.686 303.509 421.256C303.509 426.826 307.973 431.342 313.481 431.342Z" fill="white"/>
</g>
<path d="M404.934 424.282H344.51C342.242 424.282 340.404 426.142 340.404 428.436V519.883C340.404 522.177 342.242 524.037 344.51 524.037H404.934C407.202 524.037 409.04 522.177 409.04 519.883V428.436C409.04 426.142 407.202 424.282 404.934 424.282Z" fill="#F9F8F8"/>
<path fill-rule="evenodd" clip-rule="evenodd" d="M409.209 484.349L390.615 471.525L378.427 468.368C375.683 467.415 374.197 467.415 373.969 468.368C373.628 469.797 375.946 473.437 376.968 474.476C377.649 475.169 381.136 476.772 387.43 479.285L371.697 476.322L357.652 469.381C355.354 468.524 353.976 468.673 353.516 469.829C353.057 470.985 353.658 472.299 355.32 473.772L367.869 481.683C364.609 481.088 362.823 480.856 362.509 480.988C362.039 481.186 360.947 481.709 360.717 483.574C360.563 484.816 360.984 486.159 361.979 487.6L362.646 488.166C361.626 489.071 361.049 490.118 360.916 491.307C360.783 492.495 361.137 493.488 361.979 494.286L362.349 494.694C361.542 495.656 361.138 496.654 361.138 497.686C361.138 498.719 361.418 499.551 361.979 500.183L377.551 509.313C389.653 511.051 400.205 511.465 409.209 510.553V484.349Z" fill="#FFA07F"/>
<path d="M362.342 488.834L368.325 490.851" stroke="#062721" stroke-width="1.06405"/>
<path d="M362.342 494.887L369.322 497.913" stroke="#062721" stroke-width="1.06405"/>
<path d="M367.328 481.774L373.311 483.792" stroke="#062721" stroke-width="1.06405"/>
<mask id="mask1_625:5675" style="mask-type:alpha" maskUnits="userSpaceOnUse" x="344" y="277" width="57" height="67">
<path d="M344.543 280.287C347.402 293.367 348.355 304.908 347.402 314.909C355.111 333.985 363.933 343.523 373.866 343.523C383.8 343.523 392.165 333.209 398.962 312.58C397.659 304.082 398.033 295.441 400.084 286.656C402.136 277.871 383.622 275.748 344.543 280.287Z" fill="white"/>
</mask>
<g mask="url(#mask1_625:5675)">
<path d="M344.543 280.287C347.402 293.367 348.355 304.908 347.402 314.909C355.111 333.985 363.933 343.523 373.866 343.523C383.8 343.523 392.165 333.209 398.962 312.58C397.659 304.082 398.033 295.441 400.084 286.656C402.136 277.871 383.622 275.748 344.543 280.287Z" fill="#FFA07F"/>
<path fill-rule="evenodd" clip-rule="evenodd" d="M398.784 291.445C391.124 309.272 378.274 318.185 360.232 318.185C352.185 319.338 353.385 327.366 363.834 342.268L340.69 317.589L344.543 284.662L398.784 291.445Z" fill="#DF8D70"/>
</g>
<path fill-rule="evenodd" clip-rule="evenodd" d="M408.292 273.478C410.074 272.491 412.181 268.695 413.105 261.049C414.029 253.403 410.892 251.993 409 252.63C407.74 253.055 405.704 256.32 402.893 262.426L403.163 249.06C398.73 244.298 396.405 238.449 396.188 231.512C382.815 236.02 368.213 233.882 352.382 225.098C350.188 228.97 348.354 231.725 346.49 234.039C345.099 235.765 343.184 237.61 340.745 239.574L341.375 262.465L335.504 252.63C327.753 252.63 333.46 268.035 335.504 271.873C336.867 274.431 339.159 274.967 342.378 273.478C342.378 273.478 350.051 309.25 371.428 310.848C392.805 312.447 403.163 283.674 403.163 273.478C405.395 274.136 407.105 274.136 408.292 273.478Z" fill="#FFA07F"/>
<path d="M149.886 309.596C153.547 304.587 160.909 300.636 171.973 297.744C162.801 304.972 160.276 312.873 164.397 321.447" stroke="#062721" stroke-width="0.959327"/>
<path d="M154.344 271.542C155.435 280.633 156.338 286.273 157.053 288.464" stroke="#062721" stroke-width="0.959327"/>
<path d="M144.395 276.884L147.747 289.432" stroke="#062721" stroke-width="0.959327"/>
<path d="M137.126 284.082L140.591 293.579" stroke="#062721" stroke-width="0.959327"/>
<path d="M138.858 295.625C140.591 295.625 143.462 286.354 160.912 288.831" stroke="#062721" stroke-width="0.959327"/>
<path d="M286.748 425.124V537.362" stroke="#062721" stroke-width="0.959327"/>
<path d="M150.021 350.168L193.042 333.507L224.284 422.058V443.957" stroke="#062721" stroke-width="0.959327"/>
<path fill-rule="evenodd" clip-rule="evenodd" d="M373.638 292.382C369.633 292.382 366.152 290.505 363.196 286.749H384.08C381.124 290.505 377.643 292.382 373.638 292.382Z" fill="white"/>
<path d="M369.738 256.361L368.184 277.296C371.214 279.795 375.113 279.795 379.879 277.296" stroke="#062721" stroke-width="0.959327"/>
<path d="M359.226 261.649C360.26 261.649 361.098 260.801 361.098 259.755C361.098 258.709 360.26 257.861 359.226 257.861C358.193 257.861 357.354 258.709 357.354 259.755C357.354 260.801 358.193 261.649 359.226 261.649Z" fill="#062721"/>
<path d="M444.378 436.182C414.634 437.646 400.268 414.68 401.28 367.285C401.913 362.447 403.623 358.681 406.41 355.987C410.59 351.946 422.259 350.061 428.206 359.427C438.923 376.307 437.843 435.358 406.41 442.273" stroke="white" stroke-width="2.39832"/>
<path d="M446.476 439.545C448.404 439.545 449.967 437.964 449.967 436.015C449.967 434.065 448.404 432.484 446.476 432.484C444.549 432.484 442.986 434.065 442.986 436.015C442.986 437.964 444.549 439.545 446.476 439.545Z" fill="#062721"/>
<path d="M406.59 445.595C408.517 445.595 410.08 444.015 410.08 442.065C410.08 440.116 408.517 438.535 406.59 438.535C404.662 438.535 403.1 440.116 403.1 442.065C403.1 444.015 404.662 445.595 406.59 445.595Z" fill="#062721"/>
<path d="M381.165 261.649C382.199 261.649 383.037 260.801 383.037 259.755C383.037 258.709 382.199 257.861 381.165 257.861C380.131 257.861 379.293 258.709 379.293 259.755C379.293 260.801 380.131 261.649 381.165 261.649Z" fill="#062721"/>
<path d="M358.235 267.717C362.576 267.717 366.096 264.156 366.096 259.763C366.096 255.37 362.576 251.81 358.235 251.81C353.894 251.81 350.375 255.37 350.375 259.763C350.375 264.156 353.894 267.717 358.235 267.717Z" stroke="white" stroke-width="1.06405" stroke-linecap="round"/>
<path d="M382.168 267.717C386.509 267.717 390.028 264.156 390.028 259.763C390.028 255.37 386.509 251.81 382.168 251.81C377.827 251.81 374.308 255.37 374.308 259.763C374.308 264.156 377.827 267.717 382.168 267.717Z" stroke="white" stroke-width="1.06405" stroke-linecap="round"/>
<path d="M366.096 257.861H374.307" stroke="white" stroke-width="0.799439"/>
<path d="M390.028 257.861L406.826 253.189" stroke="white" stroke-width="0.799439"/>
<path d="M350.375 257.861L337.186 251.81" stroke="white" stroke-width="0.799439"/>
<path d="M351.753 250.704C355.696 248.218 359.728 248.07 363.849 250.26" stroke="#062721" stroke-width="0.799439"/>
<path d="M376.683 250.704C380.625 248.218 384.657 248.07 388.779 250.26" stroke="#062721" stroke-width="0.799439"/>
<path d="M493.458 496.398C491.136 488.983 486.646 484.781 479.989 483.791L409.208 481.773V516.46C439.994 526.496 467.257 529.001 490.997 523.973" stroke="#062721" stroke-width="0.959327"/>
<path d="M451.334 402.682L454.712 483.791" stroke="#062721" stroke-width="0.959327"/>
<defs>
<filter id="filter0_d_625:5675" x="0" y="298" width="156" height="156" filterUnits="userSpaceOnUse" color-interpolation-filters="sRGB">
<feFlood flood-opacity="0" result="BackgroundImageFix"/>
<feColorMatrix in="SourceAlpha" type="matrix" values="0 0 0 0 0 0 0 0 0 0 0 0 0 0 0 0 0 0 127 0" result="hardAlpha"/>
<feOffset dx="-10" dy="30"/>
<feGaussianBlur stdDeviation="16"/>
<feColorMatrix type="matrix" values="0 0 0 0 0.415686 0 0 0 0 0.54902 0 0 0 0 0.509804 0 0 0 0.08 0"/>
<feBlend mode="normal" in2="BackgroundImageFix" result="effect1_dropShadow_625:5675"/>
<feBlend mode="normal" in="SourceGraphic" in2="effect1_dropShadow_625:5675" result="shape"/>
</filter>
</defs>
</svg>
