<svg width="110" height="110" viewBox="0 0 110 110" fill="none" xmlns="http://www.w3.org/2000/svg">
<path d="M84.1157 41.1939V25.4796H76.0891V9.82143H58.3674V0H51.6327V9.82143H33.911V25.4796H25.8844V41.1939H0.561279V110H109.439V41.1939H84.1157ZM25.8844 103.265H7.29597V79.3571H25.8844V103.265ZM25.8844 72.6225H7.29597V63.6429H25.8844V72.6225ZM25.8844 56.9082H7.29597V47.9286H25.8844V56.9082ZM40.6457 16.5561H69.3546V25.4796H40.6457V16.5561ZM77.381 103.265H65.1021V87.2143H58.3674V103.265H51.6327V87.2143H44.898V103.265H32.6191V79.3571H77.3812V103.265H77.381ZM77.381 72.6225H32.6191V63.6429H77.3812V72.6225H77.381ZM77.381 56.9082H32.6191V47.9286H77.3812V56.9082H77.381ZM77.381 41.1939H32.6191V32.2143H77.3812V41.1939H77.381ZM102.704 103.265H84.1157V79.3571H102.704V103.265ZM102.704 72.6225H84.1157V63.6429H102.704V72.6225ZM102.704 56.9082H84.1157V47.9286H102.704V56.9082Z" fill="#3DE0FF"/>
</svg>
