<svg width="39" height="49" viewBox="0 0 39 49" fill="none" xmlns="http://www.w3.org/2000/svg">
<path d="M33.5156 0C34.2358 0 34.949 0.141858 35.6144 0.417473C36.2798 0.693089 36.8844 1.09706 37.3937 1.60634C37.9029 2.11561 38.3069 2.7202 38.5825 3.3856C38.8581 4.05099 39 4.76416 39 5.48438V43.2778C39 43.998 38.8581 44.7112 38.5825 45.3766C38.3069 46.042 37.9029 46.6466 37.3937 47.1559C36.8844 47.6651 36.2798 48.0691 35.6144 48.3447C34.949 48.6203 34.2358 48.7622 33.5156 48.7622H5.48438C4.76416 48.7622 4.05099 48.6203 3.3856 48.3447C2.7202 48.0691 2.11561 47.6651 1.60634 47.1559C1.09707 46.6466 0.693088 46.042 0.417473 45.3766C0.141857 44.7112 4.14344e-08 43.998 4.14344e-08 43.2778V5.48438C-0.000170678 4.09469 0.52722 2.75676 1.47559 1.74098C2.42395 0.725191 3.72258 0.107304 5.109 0.0121878L5.48438 0H33.5156ZM35.3438 34.125H3.65625V43.2778C3.65625 44.2869 4.47525 45.1059 5.48438 45.1059H33.5156C34.0005 45.1059 34.4655 44.9133 34.8083 44.5705C35.1511 44.2276 35.3438 43.7627 35.3438 43.2778V34.125ZM9.14306 37.7812H29.8594C30.3226 37.7814 30.7684 37.9573 31.1069 38.2736C31.4453 38.5898 31.6511 39.0227 31.6827 39.4848C31.7143 39.9469 31.5692 40.4037 31.2769 40.763C30.9846 41.1223 30.5669 41.3573 30.108 41.4204L29.8594 41.4375H9.14306C8.68009 41.4367 8.23464 41.2604 7.89666 40.944C7.55868 40.6275 7.35333 40.1947 7.32209 39.7328C7.29084 39.2709 7.43601 38.8143 7.7283 38.4552C8.02059 38.0962 8.43822 37.8614 8.89688 37.7983L9.14306 37.7812H29.8594H9.14306ZM33.5156 3.65625H5.48438L5.23575 3.67331C4.79809 3.73339 4.39699 3.94992 4.10662 4.28286C3.81625 4.61579 3.65627 5.04261 3.65625 5.48438V30.4688H9.75V24.9722C9.75 23.3951 10.9492 22.0984 12.4849 21.9424L12.7969 21.9253H26.2031C27.7802 21.9253 29.0794 23.1246 29.2329 24.6626L29.25 24.9722V30.4688H35.3438V5.48438C35.3438 4.99953 35.1511 4.53453 34.8083 4.1917C34.4655 3.84886 34.0005 3.65625 33.5156 3.65625ZM25.5938 25.5816H13.4062V30.4688H25.5938V25.5816ZM19.5 7.30031C21.1162 7.30031 22.6661 7.94233 23.8089 9.08513C24.9517 10.2279 25.5938 11.7779 25.5938 13.3941C25.5938 15.0102 24.9517 16.5602 23.8089 17.703C22.6661 18.8458 21.1162 19.4878 19.5 19.4878C17.8838 19.4878 16.3339 18.8458 15.1911 17.703C14.0483 16.5602 13.4062 15.0102 13.4062 13.3941C13.4062 11.7779 14.0483 10.2279 15.1911 9.08513C16.3339 7.94233 17.8838 7.30031 19.5 7.30031ZM19.5 10.9566C18.8535 10.9566 18.2335 11.2134 17.7764 11.6705C17.3193 12.1276 17.0625 12.7476 17.0625 13.3941C17.0625 14.0405 17.3193 14.6605 17.7764 15.1176C18.2335 15.5748 18.8535 15.8316 19.5 15.8316C20.1465 15.8316 20.7665 15.5748 21.2236 15.1176C21.6807 14.6605 21.9375 14.0405 21.9375 13.3941C21.9375 12.7476 21.6807 12.1276 21.2236 11.6705C20.7665 11.2134 20.1465 10.9566 19.5 10.9566Z" fill="#A42BAD"/>
</svg>
