<svg width="50" height="36" viewBox="0 0 50 36" fill="none" xmlns="http://www.w3.org/2000/svg">
<path d="M33.9293 25C33.4557 25 33.0015 25.1881 32.6666 25.523C32.3317 25.8579 32.1436 26.3121 32.1436 26.7857C32.1436 27.2593 32.3317 27.7135 32.6666 28.0484C33.0015 28.3833 33.4557 28.5714 33.9293 28.5714H41.0721C41.5457 28.5714 41.9999 28.3833 42.3348 28.0484C42.6697 27.7135 42.8578 27.2593 42.8578 26.7857C42.8578 26.3121 42.6697 25.8579 42.3348 25.523C41.9999 25.1881 41.5457 25 41.0721 25H33.9293Z" fill="#A42BAD"/>
<path d="M0 7.14286C0 5.24845 0.752549 3.43164 2.09209 2.09209C3.43164 0.752549 5.24845 0 7.14286 0H42.8571C44.7515 0 46.5684 0.752549 47.9079 2.09209C49.2474 3.43164 50 5.24845 50 7.14286V28.5714C50 30.4658 49.2474 32.2826 47.9079 33.6222C46.5684 34.9617 44.7515 35.7143 42.8571 35.7143H7.14286C5.24845 35.7143 3.43164 34.9617 2.09209 33.6222C0.752549 32.2826 0 30.4658 0 28.5714V7.14286ZM46.4286 7.14286C46.4286 6.19565 46.0523 5.28725 45.3825 4.61748C44.7127 3.9477 43.8043 3.57143 42.8571 3.57143H7.14286C6.19566 3.57143 5.28725 3.9477 4.61748 4.61748C3.9477 5.28725 3.57143 6.19565 3.57143 7.14286V10.7143H46.4286V7.14286ZM3.57143 28.5714C3.57143 29.5186 3.9477 30.427 4.61748 31.0968C5.28725 31.7666 6.19566 32.1429 7.14286 32.1429H42.8571C43.8043 32.1429 44.7127 31.7666 45.3825 31.0968C46.0523 30.427 46.4286 29.5186 46.4286 28.5714V14.2857H3.57143V28.5714Z" fill="#A42BAD"/>
</svg>
