<svg width="50" height="50" viewBox="0 0 50 50" fill="none" xmlns="http://www.w3.org/2000/svg">
<path fill-rule="evenodd" clip-rule="evenodd" d="M24.9997 47.9173C12.3431 47.9173 2.08301 37.6572 2.08301 25.0007C2.08301 12.3441 12.3431 2.08398 24.9997 2.08398C37.6562 2.08398 47.9163 12.3441 47.9163 25.0007C47.9163 37.6572 37.6562 47.9173 24.9997 47.9173ZM40.4156 35.6763C42.518 32.6465 43.75 28.9671 43.75 25C43.75 14.6447 35.3553 6.25 25 6.25C14.6447 6.25 6.25 14.6447 6.25 25C6.25 28.9671 7.48205 32.6465 9.58439 35.6764C11.9285 32.5801 17.436 31.2507 24.9943 31.25C20.3321 31.2473 16.6667 27.9708 16.6667 20.8333C16.6667 16.1578 19.9565 12.5 25 12.5C30.0296 12.5 33.3333 16.5033 33.3333 21.25C33.3333 28.0792 29.6246 31.2469 25.0068 31.25C32.5645 31.2508 38.0716 32.5802 40.4156 35.6763ZM37.4264 39.0412C36.8167 36.8486 32.4362 35.4167 25 35.4167C17.5638 35.4167 13.1833 36.8486 12.5736 39.0412C15.8819 41.9712 20.2332 43.75 25 43.75C29.7668 43.75 34.1181 41.9712 37.4264 39.0412ZM20.8333 20.8333C20.8333 25.561 22.5379 27.0833 25 27.0833C27.4536 27.0833 29.1667 25.6217 29.1667 21.25C29.1667 18.6467 27.5326 16.6667 25 16.6667C22.362 16.6667 20.8333 18.3663 20.8333 20.8333Z" fill="#A42BAD"/>
</svg>
