<svg width="51" height="51" viewBox="0 0 51 51" fill="none" xmlns="http://www.w3.org/2000/svg">
<path d="M47.8125 38.25V35.0625H44.464C44.2585 34.0648 43.8624 33.1162 43.2974 32.2687L45.6721 29.894L43.4185 27.6404L41.0438 30.0151C40.1963 29.4501 39.2477 29.054 38.25 28.8485V25.5H35.0625V28.8485C34.0648 29.054 33.1162 29.4501 32.2687 30.0151L29.894 27.6404L27.6404 29.894L30.0151 32.2687C29.4501 33.1162 29.054 34.0648 28.8485 35.0625H25.5V38.25H28.8485C29.054 39.2477 29.4501 40.1963 30.0151 41.0438L27.6404 43.4185L29.894 45.6721L32.2687 43.2974C33.1162 43.8624 34.0648 44.2585 35.0625 44.464V47.8125H38.25V44.464C39.2477 44.2585 40.1963 43.8624 41.0438 43.2974L43.4185 45.6721L45.6721 43.4185L43.2974 41.0438C43.8624 40.1963 44.2585 39.2477 44.464 38.25H47.8125ZM36.6562 41.4375C35.7106 41.4375 34.7862 41.1571 33.9999 40.6317C33.2137 40.1063 32.6008 39.3596 32.239 38.486C31.8771 37.6123 31.7824 36.6509 31.9669 35.7235C32.1514 34.796 32.6067 33.9441 33.2754 33.2754C33.9441 32.6067 34.796 32.1514 35.7235 31.9669C36.6509 31.7824 37.6123 31.8771 38.486 32.239C39.3596 32.6008 40.1063 33.2137 40.6317 33.9999C41.1571 34.7862 41.4375 35.7106 41.4375 36.6562C41.4362 37.9239 40.9321 39.1393 40.0357 40.0357C39.1393 40.9321 37.9239 41.4362 36.6562 41.4375Z" fill="#A42BAD"/>
<path d="M39.8438 7.96875H35.0625V6.375C35.06 5.5304 34.7233 4.72111 34.1261 4.12388C33.5289 3.52666 32.7196 3.19002 31.875 3.1875H19.125C18.2804 3.19002 17.4711 3.52666 16.8739 4.12388C16.2767 4.72111 15.94 5.5304 15.9375 6.375V7.96875H11.1562C10.3116 7.97127 9.50236 8.30791 8.90513 8.90513C8.30791 9.50236 7.97127 10.3116 7.96875 11.1562V44.625C7.97127 45.4696 8.30791 46.2789 8.90513 46.8761C9.50236 47.4733 10.3116 47.81 11.1562 47.8125H22.3125V44.625H11.1562V11.1562H15.9375V15.9375H35.0625V11.1562H39.8438V20.7188H43.0312V11.1562C43.0287 10.3116 42.6921 9.50236 42.0949 8.90513C41.4976 8.30791 40.6884 7.97127 39.8438 7.96875ZM31.875 12.75H19.125V6.375H31.875V12.75Z" fill="#A42BAD"/>
</svg>
