<svg width="53" height="53" viewBox="0 0 53 53" fill="none" xmlns="http://www.w3.org/2000/svg">
<path fill-rule="evenodd" clip-rule="evenodd" d="M42.9072 28.6635C42.9955 27.9568 43.0618 27.2502 43.0618 26.4994C43.0618 25.7485 42.9955 25.0419 42.9072 24.3352L47.5668 20.6914C47.9864 20.3602 48.0968 19.7639 47.8318 19.2781L43.4151 11.6373C43.2164 11.2839 42.8409 11.0852 42.4434 11.0852C42.3109 11.0852 42.1784 11.1073 42.068 11.1514L36.5693 13.3598C35.4209 12.4764 34.1843 11.7477 32.8372 11.1956L31.998 5.34352C31.9318 4.81352 31.468 4.41602 30.9159 4.41602H22.0826C21.5305 4.41602 21.0668 4.81352 21.0005 5.34352L20.1614 11.1956C18.8143 11.7477 17.5776 12.4985 16.4293 13.3598L10.9305 11.1514C10.798 11.1073 10.6655 11.0852 10.533 11.0852C10.1576 11.0852 9.7822 11.2839 9.58345 11.6373L5.16678 19.2781C4.8797 19.7639 5.0122 20.3602 5.43178 20.6914L10.0914 24.3352C10.003 25.0419 9.93678 25.7706 9.93678 26.4994C9.93678 27.2281 10.003 27.9568 10.0914 28.6635L5.43178 32.3073C5.0122 32.6385 4.90178 33.2348 5.16678 33.7206L9.58345 41.3614C9.7822 41.7148 10.1576 41.9135 10.5551 41.9135C10.6876 41.9135 10.8201 41.8914 10.9305 41.8473L16.4293 39.6389C17.5776 40.5223 18.8143 41.251 20.1614 41.8031L21.0005 47.6552C21.0668 48.1852 21.5305 48.5827 22.0826 48.5827H30.9159C31.468 48.5827 31.9318 48.1852 31.998 47.6552L32.8372 41.8031C34.1843 41.251 35.4209 40.5002 36.5693 39.6389L42.068 41.8473C42.2005 41.8914 42.333 41.9135 42.4655 41.9135C42.8409 41.9135 43.2164 41.7148 43.4151 41.3614L47.8318 33.7206C48.0968 33.2348 47.9864 32.6385 47.5668 32.3073L42.9072 28.6635ZM38.5348 24.8879C38.6231 25.5725 38.6452 26.0363 38.6452 26.5C38.6452 26.9638 38.6011 27.4496 38.5348 28.1121L38.2256 30.6075L40.1911 32.1533L42.5761 34.0083L41.0302 36.6804L38.2256 35.5542L35.929 34.6267L33.9415 36.1283C32.9919 36.835 32.0865 37.365 31.1811 37.7404L28.8402 38.69L28.4869 41.1854L28.0452 44.1667H24.9536L24.534 41.1854L24.1806 38.69L21.8398 37.7404C20.8902 37.3429 20.0069 36.835 19.1236 36.1725L17.114 34.6267L14.7731 35.5763L11.9686 36.7025L10.4227 34.0304L12.8077 32.1754L14.7731 30.6296L14.464 28.1342C14.3977 27.4496 14.3536 26.9417 14.3536 26.5C14.3536 26.0583 14.3977 25.5504 14.464 24.8879L14.7731 22.3925L12.8077 20.8467L10.4227 18.9917L11.9686 16.3196L14.7731 17.4458L17.0698 18.3733L19.0573 16.8717C20.0069 16.165 20.9123 15.635 21.8177 15.2596L24.1586 14.31L24.5119 11.8146L24.9536 8.83333H28.0231L28.4427 11.8146L28.7961 14.31L31.1369 15.2596C32.0865 15.6571 32.9698 16.165 33.8531 16.8275L35.8627 18.3733L38.2036 17.4238L41.0082 16.2975L42.554 18.9696L40.1911 20.8467L38.2256 22.3925L38.5348 24.8879ZM26.5 17.6667C21.6196 17.6667 17.6667 21.6196 17.6667 26.5C17.6667 31.3804 21.6196 35.3333 26.5 35.3333C31.3804 35.3333 35.3333 31.3804 35.3333 26.5C35.3333 21.6196 31.3804 17.6667 26.5 17.6667ZM26.5 30.9167C24.0708 30.9167 22.0833 28.9292 22.0833 26.5C22.0833 24.0708 24.0708 22.0833 26.5 22.0833C28.9292 22.0833 30.9167 24.0708 30.9167 26.5C30.9167 28.9292 28.9292 30.9167 26.5 30.9167Z" fill="#A42BAD"/>
</svg>
