<svg width="32" height="32" viewBox="0 0 32 32" fill="none" xmlns="http://www.w3.org/2000/svg">
<g clip-path="url(#clip0_52:4764)">
<path d="M26.0003 20.3336C27.289 20.3336 28.3336 19.289 28.3336 18.0003C28.3336 16.7117 27.289 15.667 26.0003 15.667C24.7117 15.667 23.667 16.7117 23.667 18.0003C23.667 19.289 24.7117 20.3336 26.0003 20.3336Z" fill="#3DE0FF"/>
<path d="M10.0003 17.333C5.95632 17.333 2.66699 14.0437 2.66699 9.99967V3.66634C2.66699 2.37967 3.71366 1.33301 5.00032 1.33301H7.00032C7.55232 1.33301 8.00032 1.78101 8.00032 2.33301C8.00032 2.88501 7.55232 3.33301 7.00032 3.33301H5.00032C4.81632 3.33301 4.66699 3.48234 4.66699 3.66634V9.99967C4.66699 12.941 7.05899 15.333 10.0003 15.333C12.9416 15.333 15.3336 12.941 15.3336 9.99967V3.66634C15.3336 3.48234 15.1843 3.33301 15.0003 3.33301H13.0003C12.4483 3.33301 12.0003 2.88501 12.0003 2.33301C12.0003 1.78101 12.4483 1.33301 13.0003 1.33301H15.0003C16.287 1.33301 17.3336 2.37967 17.3336 3.66634V9.99967C17.3336 14.0437 14.0443 17.333 10.0003 17.333Z" fill="#170041"/>
<path d="M7 4.66667C6.448 4.66667 6 4.21867 6 3.66667V1C6 0.448 6.448 0 7 0C7.552 0 8 0.448 8 1V3.66667C8 4.21867 7.552 4.66667 7 4.66667Z" fill="#170041"/>
<path d="M13 4.66667C12.448 4.66667 12 4.21867 12 3.66667V1C12 0.448 12.448 0 13 0C13.552 0 14 0.448 14 1V3.66667C14 4.21867 13.552 4.66667 13 4.66667Z" fill="#170041"/>
<path d="M18 31.9997C13.0373 31.9997 9 27.9623 9 22.9997V16.333C9 15.781 9.448 15.333 10 15.333C10.552 15.333 11 15.781 11 16.333V22.9997C11 26.8597 14.14 29.9997 18 29.9997C21.86 29.9997 25 26.8597 25 22.9997V20.6663C25 20.1143 25.448 19.6663 26 19.6663C26.552 19.6663 27 20.1143 27 20.6663V22.9997C27 27.9623 22.9627 31.9997 18 31.9997Z" fill="#170041"/>
<path d="M26.0003 21.3336C24.163 21.3336 22.667 19.8376 22.667 18.0003C22.667 16.163 24.163 14.667 26.0003 14.667C27.8376 14.667 29.3336 16.163 29.3336 18.0003C29.3336 19.8376 27.8376 21.3336 26.0003 21.3336ZM26.0003 16.667C25.2657 16.667 24.667 17.2657 24.667 18.0003C24.667 18.735 25.2657 19.3336 26.0003 19.3336C26.735 19.3336 27.3336 18.735 27.3336 18.0003C27.3336 17.2657 26.735 16.667 26.0003 16.667Z" fill="#170041"/>
</g>
<defs>
<clipPath id="clip0_52:4764">
<rect width="32" height="32" fill="white"/>
</clipPath>
</defs>
</svg>
