<svg width="61" height="61" viewBox="0 0 61 61" fill="none" xmlns="http://www.w3.org/2000/svg">
<path fill-rule="evenodd" clip-rule="evenodd" d="M24.1458 27.9583C22.7421 27.9583 21.6042 26.8204 21.6042 25.4167C21.6042 24.0129 22.7421 22.875 24.1458 22.875C25.5496 22.875 26.6875 24.0129 26.6875 25.4167C26.6875 26.8204 25.5496 27.9583 24.1458 27.9583ZM29.2295 43.7414V50.8072C23.4599 50.4768 18.3258 47.7318 14.8437 43.5381C16.572 42.1656 20.6387 40.7168 24.1462 40.7168C24.3495 40.7168 24.5274 40.7422 24.7308 40.7422C25.3408 39.1156 26.4337 37.4635 28.0349 36.0147C26.6116 35.7352 25.2645 35.6081 24.1462 35.6081C20.842 35.6081 15.5299 36.7518 12.1241 39.2427C10.8787 36.5993 10.1416 33.651 10.1416 30.5247C10.1416 19.316 19.2662 10.1914 30.4749 10.1914C41.6837 10.1914 50.8083 19.316 50.8083 30.5247C50.8083 33.6002 50.122 36.4977 48.902 39.0902C46.3603 37.5652 42.9037 36.8789 40.667 36.8789C36.8037 36.8789 29.2295 38.9631 29.2295 43.7414ZM40.6669 22.875C37.8456 22.875 35.5581 25.1371 35.5835 27.9583C35.5835 30.7796 37.8456 33.0417 40.6669 33.0417C43.4881 33.0417 45.7502 30.7796 45.7502 27.9583C45.7502 25.1371 43.4881 22.875 40.6669 22.875ZM24.1458 33.0417C28.3396 33.0417 31.7708 29.6104 31.7708 25.4167C31.7708 21.2229 28.3396 17.7917 24.1458 17.7917C19.9521 17.7917 16.5208 21.2229 16.5208 25.4167C16.5208 29.6104 19.9521 33.0417 24.1458 33.0417Z" fill="white"/>
<path fill-rule="evenodd" clip-rule="evenodd" d="M31.7708 25.4167C31.7708 21.2229 28.3396 17.7917 24.1458 17.7917C19.9521 17.7917 16.5208 21.2229 16.5208 25.4167C16.5208 29.6104 19.9521 33.0417 24.1458 33.0417C28.3396 33.0417 31.7708 29.6104 31.7708 25.4167ZM24.1458 27.9583C22.7479 27.9583 21.6042 26.8146 21.6042 25.4167C21.6042 24.0187 22.7479 22.875 24.1458 22.875C25.5437 22.875 26.6875 24.0187 26.6875 25.4167C26.6875 26.8146 25.5437 27.9583 24.1458 27.9583ZM40.6669 33.0417C43.4881 33.0417 45.7502 30.7796 45.7502 27.9583C45.7502 25.1371 43.4881 22.875 40.6669 22.875C37.8456 22.875 35.5581 25.1371 35.5835 27.9583C35.5835 30.7796 37.8456 33.0417 40.6669 33.0417ZM30.4753 5.10742C16.4453 5.10742 5.05859 16.4941 5.05859 30.5241C5.05859 44.5541 16.4453 55.9408 30.4753 55.9408C44.5053 55.9408 55.8919 44.5541 55.8919 30.5241C55.8919 16.4941 44.5053 5.10742 30.4753 5.10742ZM14.8439 43.5133C16.5723 42.1408 20.6135 40.6921 24.1464 40.6921C24.3243 40.6921 24.5277 40.7175 24.731 40.7175C25.341 39.0908 26.4339 37.4387 28.0352 35.99C26.6118 35.7358 25.2648 35.5833 24.1464 35.5833C20.8423 35.5833 15.5302 36.7271 12.1243 39.2179C10.8535 36.5746 10.1418 33.6262 10.1418 30.5C10.1418 19.2912 19.2664 10.1667 30.4752 10.1667C41.6839 10.1667 50.8085 19.2912 50.8085 30.5C50.8085 33.55 50.1223 36.4475 48.9023 39.0654C46.3606 37.5658 42.9039 36.8542 40.6673 36.8542C36.8039 36.8542 29.2298 38.9129 29.2298 43.7167V50.7825C23.4602 50.4521 18.326 47.7071 14.8439 43.5133V43.5133Z" fill="#A42BAD"/>
</svg>
