<svg width="66" height="60" viewBox="0 0 66 60" fill="none" xmlns="http://www.w3.org/2000/svg">
<g clip-path="url(#clip0_2638_624)">
<path d="M57.6182 0.431157C57.6182 -0.0912555 57.5308 -0.25 56.9594 -0.25C42.5192 -0.230758 28.0808 -0.230758 13.6444 -0.25C13.1023 -0.25 12.9594 -0.137435 12.9594 0.416726C12.9808 10.3551 12.9886 20.2925 12.9827 30.2289C12.9827 30.6359 12.9128 30.8292 12.461 30.9793C7.48529 32.6534 6.22315 39.0609 10.1699 42.5013C11.1417 43.3185 12.3005 43.8882 13.5453 44.1609C11.8663 44.2013 10.1961 44.1782 8.52882 44.2071C7.01063 44.2344 5.5459 44.7668 4.37048 45.7186C3.19506 46.6705 2.37736 47.9863 2.04906 49.4543C1.69053 51.0735 1.42527 52.7129 1.13962 54.3609C0.93849 55.5154 0.655746 56.6468 0.556641 57.8244H28.8309C28.8397 57.713 28.8397 57.6011 28.8309 57.4896C28.3995 55.0738 27.8952 52.6725 27.5425 50.2451C27.3116 48.495 26.4166 46.8976 25.0393 45.7772C23.6621 44.6568 21.9058 44.0975 20.1271 44.2128C18.6405 44.2763 17.1481 44.2128 15.6557 44.2128C17.9876 43.751 19.7686 42.5475 20.8383 40.4289C21.9081 38.3104 21.7711 36.1486 20.6838 34.0128C24.9046 34.0128 29.0408 34.0128 33.1799 34.0128C33.5005 34.0128 33.6026 34.0907 33.5938 34.4169C33.5705 35.2654 33.5647 36.1169 33.5938 36.9683C33.5938 37.3435 33.4918 37.433 33.1216 37.4301C31.1395 37.4128 29.1545 37.4301 27.1723 37.4128C26.8459 37.4128 26.6972 37.459 26.7089 37.8371C26.7409 38.703 26.7293 39.5688 26.7089 40.4347C26.7089 40.7233 26.7876 40.8186 27.0907 40.8186C32.5649 40.8186 38.039 40.8186 43.5131 40.8186C43.825 40.8186 43.8921 40.7176 43.8862 40.4347C43.8717 39.5833 43.8571 38.7318 43.8862 37.8833C43.9037 37.4676 43.7609 37.3955 43.3761 37.4013C41.4144 37.4186 39.4498 37.4013 37.4852 37.4186C37.1237 37.4186 36.9838 37.3464 37.0013 36.9568C37.0334 36.1659 37.0421 35.3693 37.0013 34.5785C36.9722 34.0965 37.1266 34.0012 37.5843 34.0012C44.032 34.0157 50.4768 34.0012 56.9245 34.0272C57.5278 34.0272 57.6124 33.8512 57.6124 33.3172C57.5988 22.3494 57.6007 11.3874 57.6182 0.431157ZM20.7217 47.6042C21.4655 47.5939 22.1911 47.8322 22.7813 48.2804C23.3715 48.7287 23.792 49.3609 23.9747 50.0748C24.3129 51.4862 24.5198 52.9264 24.788 54.384H4.60831C4.8794 52.9178 5.08635 51.4631 5.43322 50.0546C5.61943 49.3544 6.0355 48.7353 6.61595 48.2948C7.19641 47.8543 7.90829 47.6175 8.63958 47.6215C12.6718 47.5984 16.6992 47.5926 20.7217 47.6042ZM14.7433 40.7984C14.0628 40.8098 13.3943 40.6207 12.8225 40.2552C12.2507 39.8896 11.8016 39.3641 11.5321 38.7452C11.2626 38.1264 11.1849 37.4423 11.3088 36.7796C11.4328 36.117 11.7528 35.5058 12.2283 35.0236C12.7037 34.5414 13.3132 34.21 13.9793 34.0715C14.6453 33.9329 15.3379 33.9935 15.9691 34.2455C16.6004 34.4975 17.1417 34.9296 17.5244 35.4868C17.9072 36.0441 18.114 36.7014 18.1188 37.3753C18.1228 38.2704 17.771 39.1312 17.1394 39.7717C16.5078 40.4122 15.6472 40.781 14.7433 40.7984ZM54.1845 30.024C54.1845 30.4916 54.0825 30.6012 53.6015 30.6012C47.5016 30.5839 41.3998 30.5839 35.2961 30.6012C29.1924 30.6185 23.0906 30.6185 16.9907 30.6012C16.5214 30.6012 16.3931 30.5002 16.4077 30.024C16.4213 21.2613 16.4213 12.4976 16.4077 3.73304C16.4077 3.25681 16.5272 3.15579 16.9907 3.15579C29.1962 3.16926 41.3998 3.16926 53.6015 3.15579C54.0795 3.15579 54.1845 3.26546 54.1845 3.73304C54.1709 12.4996 54.1709 21.2632 54.1845 30.024Z" fill="purple"/>
<path d="M43.8477 25.0259C43.7493 23.1742 43.0403 21.4055 41.8293 19.9911C40.6184 18.5767 38.9723 17.5946 37.1435 17.1955C36.7995 17.1176 36.4177 17.1666 36.0883 16.9502C39.0469 16.2661 40.7375 13.9629 40.3761 11.1343C40.0613 8.69256 37.7964 6.77897 35.2401 6.80495C33.9938 6.82085 32.7955 7.28344 31.8673 8.10706C30.939 8.93068 30.3437 10.0595 30.1915 11.2844C29.9 14.0899 31.614 16.3296 34.6105 16.9588C34.319 17.0281 34.2082 17.0685 34.08 17.0887C32.8106 17.261 31.5971 17.7155 30.5304 18.4183C29.4637 19.1211 28.5716 20.0539 27.9208 21.1468C26.7986 22.9218 26.6354 24.8989 26.6995 26.9193C26.6995 27.2714 26.9385 27.1906 27.1309 27.1906C32.572 27.1906 38.0238 27.1906 43.4862 27.1906C43.7777 27.1906 43.8943 27.1415 43.8797 26.8269C43.8477 26.2352 43.8827 25.6291 43.8477 25.0259ZM33.5932 11.8963C33.5937 11.5611 33.6947 11.2336 33.8834 10.9552C34.072 10.6769 34.3397 10.4602 34.6528 10.3326C34.9658 10.2049 35.3101 10.1721 35.6419 10.2383C35.9738 10.3045 36.2784 10.4666 36.5172 10.7043C36.7559 10.9419 36.9181 11.2443 36.9833 11.5733C37.0484 11.9022 37.0135 12.2429 36.883 12.5522C36.7525 12.8615 36.5323 13.1256 36.2502 13.3109C35.9682 13.4963 35.6369 13.5946 35.2984 13.5934C34.8467 13.5867 34.4157 13.4054 34.0971 13.0884C33.7785 12.7713 33.5977 12.3435 33.5932 11.8963ZM30.5034 23.7762C30.964 21.9203 33.1006 20.4021 35.2546 20.3963C37.4525 20.3963 39.5949 21.8799 40.0817 23.7762H30.5034Z" fill="white"/>
</g>
<defs>
<clipPath id="clip0_2638_624">
<rect width="66" height="60" fill="purple"/>
</clipPath>
</defs>
</svg>
