<svg width="76" height="76" viewBox="0 0 76 76" fill="none" xmlns="http://www.w3.org/2000/svg">
<path d="M0 18.6552C0.252785 18.5574 0.232489 18.3065 0.295224 18.1016C1.61635 13.9552 6.08345 12.1321 9.88998 14.2412C11.9713 15.3982 12.9751 17.2657 13.2574 19.6129C14.0545 26.256 14.8996 32.8991 15.7243 39.5423C16.0841 42.4375 16.4495 45.3328 16.7853 48.23C16.8351 48.6655 16.9144 48.8684 17.4219 48.8574C18.9681 48.8205 20.5143 48.8334 22.0587 48.8574C22.4573 48.8574 22.6676 48.8149 22.5052 48.3481C22.2617 47.6432 22.2451 46.905 22.2451 46.1669C22.2451 39.7612 22.2451 33.3556 22.2451 26.9499C22.2451 22.2074 25.1456 18.7383 29.8102 17.8802C29.8489 17.8802 29.8803 17.8322 30.0261 17.7289C27.3082 17.2934 25.1862 16.022 23.7157 13.8076C22.2451 11.5932 21.8705 9.14265 22.5643 6.56476C23.6308 2.55121 27.6311 -0.222285 31.8103 0.132014C33.8793 0.312961 35.8194 1.21324 37.2936 2.67636C38.7677 4.13948 39.6825 6.07293 39.8791 8.14065C40.2611 12.1357 37.7074 16.7767 32.2181 17.7455C32.4413 18.0481 32.7716 17.9189 33.0207 17.9798C37.0893 18.9689 39.8754 22.4086 39.905 26.5974C39.9363 30.8195 39.9253 35.0397 39.905 39.2618C39.905 39.8504 40.0065 40.0368 40.643 40.0294C44.0529 39.9925 47.4701 39.9999 50.8744 40.0147C54.1532 40.0313 56.6091 41.8876 57.5058 44.997C57.671 45.6135 57.7487 46.2503 57.7365 46.8884C57.7365 54.1276 57.7235 61.3667 57.7365 68.6077C57.7475 72.0621 55.4079 74.8467 52.273 75.3671C52.2213 75.3671 52.1807 75.4556 52.1346 75.5018H49.7783C49.3927 75.0737 48.8023 75.1327 48.3336 74.891C45.7799 73.5734 44.4957 71.4716 44.4828 68.6169C44.4606 63.7601 44.4828 58.9014 44.4828 54.039C44.4828 53.8914 44.4735 53.7438 44.4828 53.598C44.5031 53.3525 44.4219 53.2511 44.1562 53.2529C42.6413 53.2621 41.1264 53.2529 39.5784 53.2529C39.619 53.4836 39.6374 53.6533 39.6799 53.8176C40.081 55.3247 39.9294 56.9256 39.2525 58.3307C38.5756 59.7357 37.4181 60.8519 35.9896 61.4774C35.5818 61.662 35.4821 61.8797 35.484 62.2931C35.4988 65.777 35.4619 69.2609 35.508 72.7449C35.5264 74.1123 35.0282 75.0368 33.7256 75.4926H32.6941C31.4228 74.9076 31.0335 73.9037 31.0538 72.5401C31.1202 69.2794 31.0538 66.0169 31.0907 62.7599C31.0907 62.2063 30.9449 62.0864 30.4062 62.0882C24.915 62.1104 19.4226 62.1104 13.929 62.0882C13.4031 62.0882 13.2334 62.1805 13.2389 62.7544C13.2721 66.0889 13.2242 69.4233 13.2703 72.7578C13.2887 74.1252 12.7905 75.0478 11.4879 75.5036H10.4564C9.18329 74.9187 8.79581 73.913 8.81611 72.5419C8.88069 69.1336 8.83087 65.7235 8.84378 62.3134C8.84378 61.9074 8.75706 61.6804 8.34744 61.4904C6.0244 60.4108 4.7531 58.5563 4.4468 56.0227C4.03718 52.6163 3.62387 49.2104 3.20686 45.8052C2.28183 38.3391 1.34942 30.8742 0.409623 23.4106C0.313675 22.6558 0.372719 21.8624 0 21.1556V18.6552ZM53.3118 57.8348C53.3118 54.2512 53.3118 50.6682 53.3118 47.0859C53.3118 45.259 52.4889 44.4323 50.6695 44.4305H38.1558C36.3235 44.4305 35.4951 43.6093 35.4932 41.7972C35.4932 37.9688 35.4932 34.1398 35.4932 30.3102C35.4932 29.0591 35.5264 27.8061 35.4821 26.5568C35.3659 23.4327 32.434 21.4453 29.5205 22.4971C27.7436 23.1338 26.6605 24.8038 26.6587 26.9462C26.6587 33.3519 26.6587 39.7569 26.6587 46.1614C26.6587 48.0417 27.4668 48.8555 29.3341 48.8555C34.8566 48.8555 40.3773 48.9054 45.898 48.8297C47.9277 48.802 48.9831 49.7118 48.9222 51.8929C48.8262 55.3012 48.8964 58.7205 48.8964 62.1251C48.8964 64.3395 48.8964 66.5428 48.8964 68.7516C48.8964 69.8072 49.437 70.608 50.319 70.9439C51.8154 71.5122 53.2989 70.4346 53.3063 68.7387C53.3229 65.1072 53.3118 61.4664 53.3118 57.8348ZM26.2509 57.6872C28.5832 57.6872 30.9136 57.7019 33.2458 57.6872C33.7898 57.6968 34.3181 57.5044 34.7285 57.1472C35.139 56.79 35.4025 56.2934 35.4681 55.7532C35.5337 55.213 35.3968 54.6677 35.0838 54.2226C34.7708 53.7775 34.304 53.4643 33.7735 53.3433C33.4602 53.2866 33.1415 53.2649 32.8233 53.2787C26.9594 53.2787 21.0943 53.2787 15.228 53.2787C13.691 53.2787 12.8293 52.4797 12.6688 50.9407C12.5581 49.9184 12.4178 48.898 12.2997 47.8757C11.6847 42.9364 11.0739 37.9971 10.4675 33.0578C9.91397 28.6051 9.38257 24.1505 8.82349 19.6978C8.75239 19.1827 8.50229 18.709 8.11702 18.3598C7.73175 18.0106 7.23589 17.8082 6.71633 17.7879C6.21172 17.7782 5.7186 17.9391 5.31678 18.2445C4.91495 18.5499 4.62793 18.982 4.50215 19.4708C4.37484 19.9469 4.52061 20.3935 4.57596 20.8567C5.26605 26.5919 5.9629 32.3308 6.66651 38.0734C7.37689 43.816 8.10941 49.5549 8.81242 55.2975C9.01907 56.9804 9.75898 57.6853 11.4454 57.6853L26.2509 57.6872ZM35.4877 8.9083C35.4825 8.03446 35.2181 7.18182 34.728 6.4584C34.2379 5.73497 33.544 5.17332 32.7344 4.8446C31.9248 4.51588 31.0359 4.43489 30.1802 4.61188C29.3246 4.78888 28.5407 5.21589 27.9279 5.83883C27.3151 6.46176 26.901 7.25259 26.738 8.1111C26.5751 8.96962 26.6706 9.8572 27.0124 10.6614C27.3543 11.4656 27.9272 12.1502 28.6584 12.6285C29.3897 13.1068 30.2465 13.3572 31.1202 13.3481C32.2838 13.325 33.3921 12.8476 34.2082 12.0179C35.0244 11.1882 35.4836 10.0722 35.4877 8.9083Z" fill="#3DE0FF"/>
<path d="M59.934 31.0262C51.4187 31.0262 44.4348 24.014 44.4772 15.5256C44.5197 7.03716 51.4593 0.0987991 59.9451 0.104335C68.4604 0.104335 75.4443 7.11651 75.4019 15.6049C75.3594 24.0933 68.4198 31.0317 59.934 31.0262ZM59.8307 26.5974C62.0148 26.6192 64.1564 25.9928 65.9845 24.7973C67.8126 23.6018 69.2452 21.891 70.101 19.8812C70.9569 17.8714 71.1976 15.653 70.7927 13.5064C70.3877 11.3598 69.3554 9.38156 67.8262 7.82177C66.297 6.26198 64.3396 5.19075 62.2017 4.74355C60.0637 4.29635 57.8411 4.49326 55.815 5.30939C53.7889 6.12553 52.0504 7.52421 50.8192 9.32857C49.588 11.1329 48.9195 13.2619 48.8982 15.4462C48.875 18.3738 50.0123 21.1914 52.0611 23.2826C54.1099 25.3738 56.9035 26.5683 59.8307 26.6048V26.5974Z" fill="#3DE0FF"/>
<path d="M57.7309 13.2835C57.7309 12.7428 57.7309 12.204 57.7309 11.6652C57.7309 9.96381 58.5465 8.9489 59.9211 8.93782C61.2957 8.92675 62.1464 9.94905 62.15 11.6301C62.15 12.0712 62.1703 12.5122 62.15 12.9532C62.1297 13.2854 62.2534 13.3703 62.5689 13.3592C63.1796 13.3389 63.7941 13.3352 64.4048 13.3592C64.9866 13.3718 65.54 13.6129 65.9454 14.0304C66.3508 14.4479 66.5755 15.0082 66.571 15.5902C66.5663 16.1609 66.3386 16.7071 65.9366 17.1123C65.5346 17.5174 64.9902 17.7493 64.4196 17.7584C62.9016 17.7928 61.3825 17.7928 59.8621 17.7584C59.3037 17.747 58.7716 17.5195 58.3775 17.1237C57.9835 16.7279 57.7583 16.1947 57.7494 15.6363C57.7162 14.8539 57.7494 14.0696 57.7494 13.2854L57.7309 13.2835Z" fill="#3DE0FF"/>
</svg>
